<svg width="47" height="16" viewBox="0 0 47 16" fill="none" xmlns="http://www.w3.org/2000/svg">
<path d="M23.4834 0C10.7983 0 0.497009 3.58515 0.497009 8C0.497009 12.4321 10.7964 16 23.4987 16C36.2029 16 46.485 12.4321 46.485 8C46.485 3.58515 36.201 0 23.4834 0ZM23.4987 0.693654C35.7449 0.693654 45.6898 3.97413 45.6898 8C45.6898 12.0431 35.7449 15.3063 23.5006 15.3063C11.2352 15.3063 1.30755 12.0431 1.30755 8C1.30755 3.97605 11.2371 0.693654 23.4987 0.693654ZM17.4819 2.00431C17.1562 2.00431 16.8266 2.01964 16.497 2.04647C14.3145 2.23234 12.2182 3.46635 12.2182 5.34419C12.2182 6.2927 12.8946 7.06874 13.9428 7.03617C15.1787 7.00168 16.1923 6.00335 16.7174 4.76934C16.9032 4.31329 16.5315 4.11018 16.3629 4.38036C16.0563 4.8709 15.6002 5.24264 15.1269 5.48024C14.5521 5.75042 13.9274 5.68335 13.7396 5.21006C13.4867 4.53365 14.0271 3.55258 15.2802 3.07737C17.0891 2.4182 18.9669 2.85892 20.7931 3.19617C20.8103 3.19617 20.9119 3.2479 20.8275 3.29772C20.5056 3.46635 20.1837 3.61964 19.6778 4.04312C19.3214 4.36312 18.8481 4.77126 18.4937 5.21006C18.1372 5.65078 17.8843 6.03785 17.5452 6.47856C17.4953 6.54563 17.4455 6.54563 17.4455 6.54563C16.6158 6.67976 15.8206 6.78323 15.0771 7.2891C14.9238 7.39066 14.874 7.59569 14.9583 7.72982C15.0426 7.86395 15.2285 7.88312 15.3646 7.77964C15.8206 7.42515 16.2939 7.27186 16.8362 7.25653C16.8515 7.25653 16.8687 7.25653 16.8687 7.27186C16.8879 7.27186 16.8879 7.29102 16.8687 7.30635C16.0582 8.44072 15.8532 8.69365 15.2458 9.38731C14.9373 9.72674 14.6158 10.054 14.2819 10.3684C12.8946 11.6522 11.4077 11.6369 10.8654 10.8244C10.5435 10.3339 10.5952 9.82802 10.7983 9.40455C11.0666 8.87952 11.5744 8.50778 12.0151 8.28743C12.1837 8.20311 12.2355 8 12.0668 7.81413C11.9653 7.68 11.7104 7.66084 11.5246 7.69533C10.8382 7.85474 10.2332 8.25836 9.82245 8.83093C9.41171 9.4035 9.22325 10.1059 9.29222 10.8072C9.42635 12.229 10.5952 13.0568 11.9308 13.0395C12.9789 13.0242 13.9772 12.7023 15.1614 11.5008C16.2766 10.3511 17.3075 8.65916 18.2561 7.08599C18.2905 7.03617 18.3078 7.00168 18.4592 6.98443C19.0532 6.91737 19.948 6.83306 20.5056 6.79856C20.6244 6.78324 20.6589 6.78132 20.7087 6.8503C20.8429 7.03617 21.0805 7.18755 21.251 7.29102C21.3526 7.34084 21.3852 7.35808 21.4522 7.35808C21.5384 7.35808 21.6055 7.32359 21.6381 7.27186C21.7071 7.20479 21.7243 7.12048 21.6898 7.07066C21.6553 7.00168 21.2683 6.78323 21.2491 6.69701C21.2338 6.64719 21.3008 6.62994 21.3008 6.62994C21.4665 6.58421 21.6209 6.50502 21.7547 6.39725C21.8885 6.28947 21.9988 6.15542 22.0788 6.00335C22.2647 5.64886 22.2819 5.19282 21.96 4.93797C21.6726 4.70228 21.251 4.7521 20.8946 5.05677C20.7402 5.19889 20.6226 5.37635 20.5518 5.57393C20.4811 5.77151 20.4593 5.9833 20.4884 6.19114C20.5075 6.2582 20.4884 6.2927 20.4041 6.2927C19.881 6.32527 19.3732 6.34252 18.8137 6.37701C18.7638 6.37701 18.7638 6.35785 18.7811 6.32527C19.423 5.21006 20.3868 4.41485 21.4522 3.61964C21.5212 3.5679 21.504 3.46635 21.504 3.38204C23.4316 3.80359 25.2922 4.58347 27.2889 4.56623C28.0994 4.56623 28.8946 4.44743 29.6553 4.02587C30.3164 3.65413 30.5866 3.33222 30.6038 2.97772C30.6192 2.74012 30.4505 2.58874 30.2149 2.63856C28.2029 3.11186 26.2733 3.09461 24.2613 2.85892C21.9658 2.57725 19.7641 1.99665 17.48 2.00431H17.4819ZM30.5693 2.74012C30.5693 2.75737 30.5866 2.75737 30.5866 2.7727C30.5866 2.75737 30.5693 2.74012 30.5693 2.74012ZM21.525 5.24647C21.5729 5.24647 21.617 5.2618 21.6553 5.29437C21.7569 5.37868 21.7071 5.61437 21.6055 5.76767C21.495 5.94572 21.3187 6.07308 21.115 6.12216C21.0805 6.14132 21.0479 6.12216 21.0307 6.03785C21.0142 5.91042 21.0287 5.78092 21.0727 5.66022C21.1167 5.53952 21.189 5.43114 21.2836 5.34419C21.3497 5.28357 21.4354 5.24886 21.525 5.24647ZM36.5056 5.27713C36.4213 5.27713 36.3715 5.29437 36.3198 5.37868C36.1856 5.64886 34.4611 8.22036 34.1372 8.72815C34.0874 8.81246 34.0204 8.79521 34.0031 8.70898C33.9686 8.40623 33.7157 8.06707 33.3095 7.91569C33.014 7.79781 32.6921 7.7627 32.3782 7.81413C31.8225 7.8812 31.3128 8.18587 30.874 8.52311C30.1976 9.0309 29.6228 9.69198 28.8774 10.1825C28.4731 10.4508 27.9135 10.6731 27.5418 10.3358C27.2026 10.0292 27.2371 9.33557 27.7622 8.79521C27.812 8.74347 27.881 8.77796 27.8637 8.8297C27.8367 8.94773 27.8413 9.07079 27.877 9.18649C27.9126 9.3022 27.9781 9.40648 28.0668 9.48886C28.2853 9.69198 28.6072 9.70922 28.8946 9.57318C29.05 9.49119 29.1834 9.37299 29.2834 9.22857C29.3835 9.08416 29.4473 8.91776 29.4695 8.74347C29.4871 8.61621 29.4784 8.48668 29.444 8.36291C29.4096 8.23913 29.3501 8.12373 29.2693 8.02387C29.1884 7.924 29.088 7.84178 28.9741 7.7823C28.8602 7.72283 28.7353 7.68736 28.6072 7.67808C28.1856 7.64551 27.7622 7.79689 27.3732 8.13605C27.1805 8.28739 27.0147 8.47005 26.8826 8.67641C26.8481 8.74347 26.7811 8.74347 26.7811 8.65916C26.7983 7.96551 26.5109 7.5612 25.9341 7.54395C25.4781 7.52479 25.0048 7.77964 24.6311 8.06707C24.2186 8.43226 23.8343 8.82812 23.4814 9.25126C23.4316 9.30299 23.399 9.30299 23.3818 9.20144C23.3748 8.76745 23.2581 8.34229 23.0426 7.96551C22.9583 7.84862 22.805 7.79689 22.6709 7.8812C22.6038 7.91569 22.4007 8.01533 22.2302 8.13605C22.1459 8.20312 22.1286 8.28934 22.1631 8.40431C22.3662 9.09988 22.3317 9.89509 22.0443 10.5543C21.7914 11.1636 21.2836 11.7212 20.6915 11.9071C20.3025 12.0259 19.8963 11.9741 19.6434 11.6196C19.3042 11.1463 19.4402 10.3166 19.948 9.623C20.4041 9.01557 21.0479 8.62659 21.7071 8.38898C21.7914 8.35449 21.7914 8.30467 21.7741 8.23569C21.74 8.12706 21.7004 8.02026 21.6553 7.91569C21.5883 7.7624 21.4369 7.72982 21.2146 7.74707C20.7512 7.80901 20.3038 7.95857 19.8963 8.18779C18.7983 8.77796 18.2388 9.92767 17.9859 10.537C17.8671 10.8244 17.7655 11.0103 17.6467 11.1789C17.4781 11.3993 17.2577 11.6024 16.8534 11.9569C16.8189 11.9914 16.7844 12.0584 16.8189 12.1274C16.9019 12.2758 17.0044 12.4124 17.1236 12.5337C17.1907 12.5662 17.2577 12.5145 17.2922 12.4992C17.5809 12.3032 17.8425 12.0699 18.0702 11.8055C18.1219 11.7384 18.189 11.771 18.2235 11.8726C18.2974 12.1439 18.4359 12.3932 18.6271 12.5994C18.8183 12.8056 19.0565 12.9625 19.3214 13.0568C20.337 13.3959 21.3852 12.9035 22.1804 12.0412C22.6881 11.5008 22.874 11.1463 23.0599 10.9107C23.3818 10.5025 24.041 9.5885 24.8036 9.01365C25.091 8.79521 25.411 8.64192 25.5796 8.74539C25.7138 8.8297 25.7655 9.03282 25.5452 9.41988C24.7672 10.857 23.6002 12.5337 23.399 12.9552C23.3646 13.0242 23.399 13.074 23.4661 13.074H24.6503C24.7174 13.074 24.7346 13.0395 24.7672 13.0069C25.3765 12.0584 25.9361 11.1636 26.5435 10.2323C26.578 10.1825 26.6125 10.2151 26.6125 10.2496C26.6243 10.4963 26.6877 10.7378 26.7983 10.9586C26.8933 11.115 27.0273 11.244 27.1872 11.3331C27.3471 11.4221 27.5274 11.468 27.7104 11.4663C27.9671 11.472 28.2217 11.4203 28.4558 11.315C28.7087 11.2134 28.9119 11.0946 29.0632 10.9931C29.1495 10.926 29.1648 11.0448 29.1648 11.0448C29.0307 11.7883 29.1993 12.685 29.9428 13.0395C30.8395 13.4802 31.8206 12.8537 32.3782 12.3114C32.4299 12.2616 32.497 12.2616 32.497 12.3804C32.5097 12.6226 32.6121 12.8515 32.7844 13.0223C33.2577 13.4975 34.2062 13.3097 35.1701 12.5662C35.7794 12.0929 36.4213 11.4165 36.9962 10.7229C37.0134 10.6884 37.0307 10.6558 36.9962 10.6041C36.9119 10.5198 36.7758 10.401 36.6915 10.3166C36.6589 10.2841 36.5899 10.2994 36.5574 10.3166C35.9634 10.8743 35.423 11.5353 34.6623 12.0604C34.4093 12.2462 33.9859 12.3804 33.8 12.1447C33.7329 12.0431 33.7329 11.9071 33.8 11.7384C34.0529 11.1444 37.6228 5.7006 37.8086 5.37677C37.8412 5.32695 37.8086 5.27713 37.7416 5.27713H36.5056ZM32.7461 8.68791C32.8381 8.68791 32.9262 8.70707 33.0048 8.74539C33.4455 8.94659 33.3095 9.45437 33.1063 9.8606C33.0891 9.89509 33.0891 9.91042 33.0891 9.94491C33.0891 9.9794 33.1581 10.0292 33.2079 10.0465C33.2252 10.0465 33.2424 10.0637 33.2079 10.1135C33.0546 10.4354 32.9205 10.6213 32.7346 10.9087C32.5634 11.1559 32.3583 11.3778 32.1253 11.5679C31.7708 11.8745 31.263 12.1945 30.8568 11.9741C30.6709 11.8726 30.5866 11.6196 30.6038 11.4165C30.6192 10.8244 30.8721 10.2323 31.3473 9.64024C31.8283 9.05006 32.3437 8.69174 32.7461 8.68791Z" fill="#262626"/>
</svg>
