<svg width="93" height="32" viewBox="0 0 93 32" fill="none" xmlns="http://www.w3.org/2000/svg">
<path d="M46.4757 0C21.1056 0 0.502991 7.1703 0.502991 16C0.502991 24.8642 21.1018 32 46.5063 32C71.9147 32 92.479 24.8642 92.479 16C92.479 7.1703 71.9109 0 46.4757 0ZM46.5063 1.38731C70.9988 1.38731 90.8886 7.94826 90.8886 16C90.8886 24.0862 70.9988 30.6127 46.5102 30.6127C21.9794 30.6127 2.12407 24.0862 2.12407 16C2.12407 7.9521 21.9832 1.38731 46.5063 1.38731ZM34.4728 4.00863C33.8213 4.00863 33.1622 4.03928 32.503 4.09293C28.138 4.46467 23.9454 6.9327 23.9454 10.6884C23.9454 12.5854 25.2982 14.1375 27.3945 14.0723C29.8663 14.0034 31.8937 12.0067 32.9437 9.53868C33.3154 8.62659 32.572 8.22036 32.2347 8.76072C31.6216 9.7418 30.7095 10.4853 29.7629 10.9605C28.6132 11.5008 27.3638 11.3667 26.9883 10.4201C26.4824 9.06731 27.5631 7.10515 30.0695 6.15473C33.6872 4.83641 37.4429 5.71785 41.0951 6.39234C41.1296 6.39234 41.3327 6.49581 41.1641 6.59545C40.5202 6.93269 39.8764 7.23928 38.8647 8.08623C38.1519 8.72623 37.2053 9.54252 36.4963 10.4201C35.7835 11.3016 35.2776 12.0757 34.5993 12.9571C34.4996 13.0913 34.4 13.0913 34.4 13.0913C32.7406 13.3595 31.1502 13.5665 29.6632 14.5782C29.3566 14.7813 29.257 15.1914 29.4256 15.4596C29.5942 15.7279 29.966 15.7662 30.2381 15.5593C31.1502 14.8503 32.0968 14.5437 33.1813 14.5131C33.212 14.5131 33.2465 14.5131 33.2465 14.5437C33.2848 14.5437 33.2848 14.582 33.2465 14.6127C31.6254 16.8814 31.2153 17.3873 30.0005 18.7746C29.3837 19.4535 28.7406 20.108 28.0728 20.7368C25.2982 23.3044 22.3243 23.2738 21.2398 21.6489C20.5959 20.6678 20.6994 19.656 21.1056 18.8091C21.6422 17.759 22.6577 17.0156 23.5392 16.5749C23.8764 16.4062 23.9799 16 23.6426 15.6283C23.4395 15.36 22.9298 15.3217 22.5581 15.3907C21.1853 15.7095 19.9754 16.5167 19.1539 17.6619C18.3324 18.807 17.9555 20.2118 18.0934 21.6144C18.3617 24.458 20.6994 26.1135 23.3705 26.079C25.4668 26.0484 27.4635 25.4046 29.8319 23.0017C32.0623 20.7023 34.1241 17.3183 36.0211 14.172C36.0901 14.0723 36.1245 14.0034 36.4273 13.9689C37.6153 13.8347 39.405 13.6661 40.5202 13.5971C40.7578 13.5665 40.8268 13.5626 40.9265 13.7006C41.1947 14.0723 41.6699 14.3751 42.011 14.582C42.2141 14.6817 42.2793 14.7162 42.4134 14.7162C42.5859 14.7162 42.72 14.6472 42.7851 14.5437C42.9231 14.4096 42.9576 14.241 42.8886 14.1413C42.8196 14.0034 42.0455 13.5665 42.0072 13.394C41.9765 13.2944 42.1107 13.2599 42.1107 13.2599C42.4419 13.1684 42.7508 13.01 43.0184 12.7945C43.2861 12.5789 43.5066 12.3108 43.6666 12.0067C44.0383 11.2977 44.0728 10.3856 43.429 9.87593C42.8541 9.40455 42.011 9.50419 41.2982 10.1135C40.9894 10.3978 40.7541 10.7527 40.6126 11.1479C40.4711 11.543 40.4276 11.9666 40.4857 12.3823C40.5241 12.5164 40.4857 12.5854 40.3171 12.5854C39.2709 12.6505 38.2553 12.685 37.1363 12.754C37.0366 12.754 37.0366 12.7157 37.0711 12.6505C38.355 10.4201 40.2826 8.8297 42.4134 7.23928C42.5514 7.13581 42.5169 6.9327 42.5169 6.76407C46.3722 7.60719 50.0934 9.16695 54.0867 9.13246C55.7078 9.13246 57.2982 8.89485 58.8196 8.05174C60.1418 7.30826 60.6822 6.66443 60.7166 5.95545C60.7473 5.48024 60.4101 5.17748 59.9387 5.27713C55.9147 6.22371 52.0556 6.18922 48.0316 5.71785C43.4405 5.15449 39.0371 3.9933 34.469 4.00863H34.4728ZM60.6477 5.48024C60.6477 5.51473 60.6822 5.51473 60.6822 5.54539C60.6822 5.51473 60.6477 5.48024 60.6477 5.48024ZM42.559 10.4929C42.6548 10.4929 42.743 10.5236 42.8196 10.5887C43.0228 10.7574 42.9231 11.2287 42.72 11.5353C42.4989 11.8914 42.1464 12.1462 41.7389 12.2443C41.6699 12.2826 41.6048 12.2443 41.5703 12.0757C41.5375 11.8208 41.5663 11.5618 41.6543 11.3204C41.7423 11.079 41.887 10.8623 42.0762 10.6884C42.2083 10.5671 42.3798 10.4977 42.559 10.4929ZM72.5202 10.5543C72.3516 10.5543 72.252 10.5887 72.1485 10.7574C71.8802 11.2977 68.4311 16.4407 67.7835 17.4563C67.6838 17.6249 67.5497 17.5904 67.5152 17.418C67.4462 16.8125 66.9404 16.1341 66.1279 15.8314C65.5371 15.5956 64.8931 15.5254 64.2654 15.6283C63.154 15.7624 62.1346 16.3717 61.257 17.0462C59.9042 18.0618 58.7545 19.384 57.2637 20.365C56.4551 20.9016 55.336 21.3461 54.5926 20.6716C53.9142 20.0584 53.9832 18.6711 55.0333 17.5904C55.1329 17.4869 55.2709 17.5559 55.2364 17.6594C55.1825 17.8955 55.1916 18.1416 55.2629 18.373C55.3342 18.6044 55.4652 18.813 55.6426 18.9777C56.0795 19.384 56.7233 19.4184 57.2982 19.1464C57.609 18.9824 57.8757 18.746 58.0758 18.4571C58.276 18.1683 58.4036 17.8355 58.4479 17.4869C58.4832 17.2324 58.4658 16.9734 58.397 16.7258C58.3281 16.4783 58.2092 16.2475 58.0475 16.0477C57.8859 15.848 57.6849 15.6836 57.4572 15.5646C57.2294 15.4457 56.9796 15.3747 56.7234 15.3562C55.8802 15.291 55.0333 15.5938 54.2553 16.2721C53.87 16.5748 53.5384 16.9401 53.2743 17.3528C53.2053 17.4869 53.0711 17.4869 53.0711 17.3183C53.1056 15.931 52.5308 15.1224 51.3772 15.0879C50.4651 15.0496 49.5186 15.5593 48.7713 16.1341C47.9462 16.8645 47.1775 17.6562 46.4719 18.5025C46.3722 18.606 46.3071 18.606 46.2726 18.4029C46.2585 17.5349 46.0252 16.6846 45.5942 15.931C45.4256 15.6972 45.119 15.5938 44.8508 15.7624C44.7166 15.8314 44.3104 16.0307 43.9693 16.2721C43.8007 16.4062 43.7662 16.5787 43.8352 16.8086C44.2414 18.1998 44.1725 19.7902 43.5976 21.1085C43.0917 22.3272 42.0762 23.4424 40.892 23.8141C40.114 24.0517 39.3016 23.9483 38.7957 23.2393C38.1174 22.2927 38.3895 20.6333 39.405 19.246C40.3171 18.0311 41.6048 17.2532 42.9231 16.778C43.0917 16.709 43.0917 16.6093 43.0572 16.4714C42.989 16.2541 42.9097 16.0405 42.8196 15.8314C42.6855 15.5248 42.3828 15.4596 41.9382 15.4941C41.0114 15.618 40.1166 15.9171 39.3016 16.3756C37.1056 17.5559 35.9866 19.8553 35.4807 21.074C35.2431 21.6489 35.04 22.0206 34.8024 22.3578C34.4651 22.7986 34.0244 23.2048 33.2158 23.9138C33.1468 23.9828 33.0778 24.1169 33.1468 24.2549C33.3128 24.5516 33.5177 24.8249 33.7562 25.0673C33.8903 25.1325 34.0244 25.029 34.0934 24.9983C34.6708 24.6063 35.194 24.1399 35.6493 23.611C35.7528 23.4769 35.8869 23.542 35.9559 23.7452C36.1039 24.2877 36.3808 24.7865 36.7632 25.1989C37.1456 25.6113 37.622 25.9251 38.1519 26.1135C40.183 26.7919 42.2793 25.8069 43.8697 24.0824C44.8853 23.0017 45.257 22.2927 45.6287 21.8213C46.2726 21.005 47.5909 19.177 49.1162 18.0273C49.691 17.5904 50.331 17.2838 50.6683 17.4908C50.9365 17.6594 51.04 18.0656 50.5993 18.8398C49.0433 21.714 46.7095 25.0673 46.3071 25.9104C46.2381 26.0484 46.3071 26.148 46.4412 26.148H48.8096C48.9437 26.148 48.9782 26.079 49.0434 26.0139C50.262 24.1169 51.3811 22.3272 52.5959 20.4647C52.6649 20.365 52.7339 20.4302 52.7339 20.4992C52.7577 20.9926 52.8843 21.4755 53.1056 21.9171C53.2956 22.23 53.5636 22.4881 53.8834 22.6661C54.2032 22.8442 54.5638 22.936 54.9298 22.9327C55.4431 22.944 55.9524 22.8406 56.4206 22.6299C56.9265 22.4268 57.3327 22.1892 57.6354 21.9861C57.8079 21.852 57.8386 22.0896 57.8386 22.0896C57.5703 23.5765 57.9075 25.3701 59.3945 26.079C61.188 26.9605 63.1502 25.7073 64.2654 24.6228C64.3689 24.5231 64.503 24.5231 64.503 24.7607C64.5283 25.2453 64.7332 25.703 65.0778 26.0446C66.0244 26.995 67.9214 26.6194 69.8491 25.1325C71.0678 24.1859 72.3516 22.8331 73.5013 21.4457C73.5358 21.3768 73.5703 21.3116 73.5013 21.2081C73.3327 21.0395 73.0606 20.8019 72.892 20.6333C72.8268 20.5681 72.6889 20.5988 72.6237 20.6333C71.4357 21.7485 70.355 23.0707 68.8335 24.1207C68.3277 24.4925 67.4807 24.7607 67.109 24.2893C66.9748 24.0862 66.9748 23.8141 67.109 23.4769C67.6148 22.2889 74.7545 11.4012 75.1262 10.7535C75.1914 10.6539 75.1262 10.5543 74.9921 10.5543H72.5202ZM65.0012 17.3758C65.1851 17.3758 65.3614 17.4141 65.5186 17.4908C66.4 17.8932 66.1279 18.9087 65.7217 19.7212C65.6872 19.7902 65.6872 19.8208 65.6872 19.8898C65.6872 19.9588 65.8251 20.0584 65.9248 20.0929C65.9593 20.0929 65.9938 20.1274 65.9248 20.2271C65.6182 20.8709 65.3499 21.2426 64.9782 21.8175C64.6358 22.3119 64.2255 22.7557 63.7595 23.1358C63.0505 23.749 62.035 24.389 61.2225 23.9483C60.8508 23.7452 60.6822 23.2393 60.7166 22.8331C60.7473 21.6489 61.2532 20.4647 62.2036 19.2805C63.1655 18.1001 64.1964 17.3835 65.0012 17.3758Z" fill="#262626"/>
</svg>
