<svg width="69" height="24" viewBox="0 0 69 24" fill="none" xmlns="http://www.w3.org/2000/svg">
<path d="M34.4795 0C15.452 0 0 5.37773 0 12C0 18.6481 15.4491 24 34.5025 24C53.5588 24 68.982 18.6481 68.982 12C68.982 5.37773 53.5559 0 34.4795 0ZM34.5025 1.04048C52.8719 1.04048 67.7892 5.9612 67.7892 12C67.7892 18.0647 52.8719 22.9595 34.5054 22.9595C16.1073 22.9595 1.21581 18.0647 1.21581 12C1.21581 5.96407 16.1102 1.04048 34.5025 1.04048ZM25.4774 3.00647C24.9887 3.00647 24.4944 3.02946 24 3.0697C20.7262 3.3485 17.5818 5.19952 17.5818 8.01629C17.5818 9.43904 18.5964 10.6031 20.1686 10.5543C22.0225 10.5025 23.543 9.00503 24.3305 7.15401C24.6093 6.46994 24.0517 6.16527 23.7988 6.57054C23.3389 7.30635 22.6549 7.86395 21.9449 8.22036C21.0826 8.62563 20.1456 8.52503 19.864 7.81509C19.4845 6.80048 20.2951 5.32886 22.1749 4.61605C24.8881 3.62731 27.7049 4.28838 30.4441 4.79425C30.4699 4.79425 30.6223 4.87186 30.4958 4.94659C30.0129 5.19952 29.5301 5.42946 28.7713 6.06467C28.2366 6.54467 27.5267 7.15689 26.995 7.81509C26.4604 8.47617 26.081 9.05677 25.5722 9.71785C25.4975 9.81845 25.4228 9.81844 25.4228 9.81844C24.1782 10.0196 22.9854 10.1749 21.8702 10.9337C21.6402 11.086 21.5655 11.3935 21.692 11.5947C21.8184 11.7959 22.0972 11.8247 22.3013 11.6695C22.9854 11.1377 23.6953 10.9078 24.5087 10.8848C24.5317 10.8848 24.5576 10.8848 24.5576 10.9078C24.5863 10.9078 24.5863 10.9365 24.5576 10.9595C23.3418 12.6611 23.0343 13.0405 22.1231 14.081C21.6605 14.5901 21.1782 15.081 20.6774 15.5526C18.5964 17.4783 16.366 17.4553 15.5526 16.2366C15.0697 15.5008 15.1473 14.742 15.452 14.1068C15.8544 13.3193 16.616 12.7617 17.2771 12.4311C17.5301 12.3047 17.6077 12 17.3547 11.7212C17.2024 11.52 16.8201 11.4913 16.5413 11.543C15.5117 11.7821 14.6043 12.3875 13.9882 13.2464C13.3721 14.1052 13.0894 15.1589 13.1928 16.2108C13.394 18.3435 15.1473 19.5852 17.1507 19.5593C18.7229 19.5363 20.2204 19.0534 21.9966 17.2513C23.6695 15.5267 25.2158 12.9887 26.6386 10.629C26.6903 10.5543 26.7162 10.5025 26.9432 10.4766C27.8342 10.376 29.1765 10.2496 30.0129 10.1978C30.1911 10.1749 30.2429 10.172 30.3176 10.2754C30.5188 10.5543 30.8752 10.7813 31.131 10.9365C31.2834 11.0113 31.3322 11.0371 31.4328 11.0371C31.5622 11.0371 31.6628 10.9854 31.7116 10.9078C31.8151 10.8072 31.841 10.6807 31.7892 10.606C31.7375 10.5025 31.1569 10.1749 31.1281 10.0455C31.1051 9.97078 31.2057 9.94491 31.2057 9.94491C31.4542 9.87631 31.6859 9.75752 31.8866 9.59587C32.0873 9.43421 32.2527 9.23313 32.3727 9.00503C32.6515 8.4733 32.6774 7.78922 32.1945 7.40695C31.7634 7.05342 31.131 7.12814 30.5964 7.58515C30.3648 7.79833 30.1883 8.06452 30.0822 8.36089C29.9761 8.65726 29.9434 8.97495 29.9871 9.28671C30.0158 9.38731 29.9871 9.43904 29.8606 9.43904C29.0759 9.48791 28.3143 9.51377 27.475 9.56551C27.4002 9.56551 27.4002 9.53677 27.4261 9.48791C28.389 7.81509 29.8347 6.62228 31.4328 5.42946C31.5363 5.35186 31.5104 5.19952 31.5104 5.07306C34.4019 5.70539 37.1928 6.87521 40.1878 6.84934C41.4036 6.84934 42.5964 6.67114 43.7375 6.0388C44.7291 5.4812 45.1344 4.99832 45.1602 4.46659C45.1832 4.11018 44.9303 3.88311 44.5768 3.95784C41.5588 4.66778 38.6644 4.64192 35.6465 4.28838C32.2031 3.86587 28.9006 2.99497 25.4745 3.00647H25.4774ZM45.1085 4.11018C45.1085 4.13605 45.1344 4.13605 45.1344 4.15904C45.1344 4.13605 45.1085 4.11018 45.1085 4.11018ZM31.542 7.8697C31.6139 7.8697 31.68 7.8927 31.7375 7.94156C31.8898 8.06803 31.8151 8.42156 31.6628 8.6515C31.4969 8.91858 31.2326 9.10961 30.9269 9.18324C30.8752 9.21198 30.8263 9.18323 30.8005 9.05677C30.7759 8.86563 30.7975 8.67138 30.8635 8.49033C30.9295 8.30928 31.038 8.14671 31.1799 8.01629C31.279 7.92535 31.4076 7.87329 31.542 7.8697ZM54.0129 7.91569C53.8865 7.91569 53.8117 7.94156 53.7341 8.06802C53.5329 8.47329 50.9461 12.3305 50.4604 13.0922C50.3856 13.2187 50.285 13.1928 50.2592 13.0635C50.2074 12.6093 49.828 12.1006 49.2187 11.8735C48.7756 11.6967 48.2926 11.6441 47.8218 11.7212C46.9883 11.8218 46.2237 12.2788 45.5655 12.7847C44.5509 13.5463 43.6886 14.538 42.5705 15.2738C41.9641 15.6762 41.1248 16.0096 40.5672 15.5037C40.0584 15.0438 40.1102 14.0034 40.8977 13.1928C40.9725 13.1152 41.0759 13.1669 41.0501 13.2446C41.0096 13.4216 41.0165 13.6062 41.0699 13.7797C41.1234 13.9533 41.2216 14.1097 41.3547 14.2333C41.6824 14.538 42.1653 14.5638 42.5964 14.3598C42.8295 14.2368 43.0295 14.0595 43.1796 13.8429C43.3297 13.6262 43.4254 13.3766 43.4587 13.1152C43.4851 12.9243 43.4721 12.73 43.4205 12.5444C43.3688 12.3587 43.2796 12.1856 43.1584 12.0358C43.0371 11.886 42.8864 11.7627 42.7156 11.6735C42.5448 11.5842 42.3575 11.531 42.1653 11.5171C41.5329 11.4683 40.8977 11.6953 40.3143 12.2041C40.0253 12.4311 39.7765 12.7051 39.5784 13.0146C39.5267 13.1152 39.4261 13.1152 39.4261 12.9887C39.452 11.9483 39.0208 11.3418 38.1557 11.3159C37.4716 11.2872 36.7617 11.6695 36.2012 12.1006C35.5824 12.6484 35.0059 13.2422 34.4766 13.8769C34.4019 13.9545 34.3531 13.9545 34.3272 13.8022C34.3167 13.1512 34.1417 12.5134 33.8184 11.9483C33.692 11.7729 33.462 11.6953 33.2608 11.8218C33.1602 11.8735 32.8556 12.023 32.5998 12.2041C32.4733 12.3047 32.4474 12.434 32.4992 12.6065C32.8038 13.6498 32.7521 14.8426 32.321 15.8314C31.9416 16.7454 31.1799 17.5818 30.2917 17.8606C29.7083 18.0388 29.0989 17.9612 28.7195 17.4295C28.2108 16.7195 28.4148 15.475 29.1765 14.4345C29.8606 13.5234 30.8263 12.9399 31.8151 12.5835C31.9416 12.5317 31.9416 12.457 31.9157 12.3535C31.8645 12.1906 31.8051 12.0304 31.7375 11.8735C31.6369 11.6436 31.4098 11.5947 31.0764 11.6206C30.3813 11.7135 29.7102 11.9379 29.0989 12.2817C27.452 13.1669 26.6127 14.8915 26.2333 15.8055C26.0551 16.2366 25.9028 16.5155 25.7245 16.7684C25.4716 17.0989 25.1411 17.4036 24.5346 17.9353C24.4829 17.9871 24.4311 18.0877 24.4829 18.1911C24.6074 18.4137 24.7611 18.6187 24.9399 18.8005C25.0405 18.8493 25.1411 18.7717 25.1928 18.7487C25.6259 18.4548 26.0182 18.1049 26.3598 17.7083C26.4374 17.6077 26.538 17.6565 26.5897 17.8089C26.7007 18.2158 26.9084 18.5899 27.1951 18.8992C27.4819 19.2085 27.8392 19.4438 28.2366 19.5852C29.76 20.0939 31.3322 19.3552 32.525 18.0618C33.2867 17.2513 33.5655 16.7195 33.8443 16.366C34.3272 15.7538 35.3159 14.3828 36.4599 13.5205C36.891 13.1928 37.371 12.9629 37.624 13.1181C37.8251 13.2446 37.9028 13.5492 37.5722 14.1298C36.4053 16.2855 34.6548 18.8005 34.3531 19.4328C34.3013 19.5363 34.3531 19.611 34.4537 19.611H36.2299C36.3305 19.611 36.3564 19.5593 36.4053 19.5104C37.3193 18.0877 38.1586 16.7454 39.0697 15.3485C39.1214 15.2738 39.1732 15.3226 39.1732 15.3744C39.191 15.7444 39.286 16.1066 39.452 16.4378C39.5945 16.6725 39.7955 16.8661 40.0353 16.9996C40.2752 17.1331 40.5456 17.202 40.8201 17.1995C41.2051 17.208 41.5871 17.1304 41.9382 16.9725C42.3176 16.8201 42.6223 16.6419 42.8493 16.4896C42.9787 16.389 43.0017 16.5672 43.0017 16.5672C42.8005 17.6824 43.0534 19.0275 44.1686 19.5593C45.5138 20.2204 46.9854 19.2805 47.8218 18.4671C47.8994 18.3923 48 18.3923 48 18.5705C48.019 18.9339 48.1727 19.2772 48.4311 19.5334C49.1411 20.2462 50.5638 19.9646 52.0096 18.8493C52.9236 18.1394 53.8865 17.1248 54.7487 16.0843C54.7746 16.0326 54.8005 15.9837 54.7487 15.9061C54.6223 15.7796 54.4182 15.6014 54.2917 15.475C54.2429 15.4261 54.1394 15.4491 54.0905 15.475C53.1995 16.3114 52.389 17.303 51.2479 18.0905C50.8685 18.3693 50.2333 18.5705 49.9545 18.217C49.8539 18.0647 49.8539 17.8606 49.9545 17.6077C50.3339 16.7166 55.6886 8.5509 55.9674 8.06515C56.0163 7.99042 55.9674 7.91569 55.8668 7.91569H54.0129ZM48.3736 13.0319C48.5116 13.0319 48.6438 13.0606 48.7617 13.1181C49.4228 13.4199 49.2187 14.1816 48.914 14.7909C48.8881 14.8426 48.8881 14.8656 48.8881 14.9174C48.8881 14.9691 48.9916 15.0438 49.0663 15.0697C49.0922 15.0697 49.1181 15.0956 49.0663 15.1703C48.8364 15.6532 48.6352 15.932 48.3564 16.3631C48.0996 16.7339 47.7919 17.0667 47.4424 17.3519C46.9107 17.8117 46.149 18.2917 45.5396 17.9612C45.2608 17.8089 45.1344 17.4295 45.1602 17.1248C45.1832 16.2366 45.5626 15.3485 46.2754 14.4604C46.9969 13.5751 47.7701 13.0376 48.3736 13.0319Z" fill="#262626"/>
</svg>
