<?xml version="1.0" encoding="UTF-8"?>
<svg id="Layer_1" data-name="Layer 1" xmlns="http://www.w3.org/2000/svg" xmlns:xlink="http://www.w3.org/1999/xlink" viewBox="0 0 2695.5 404.25">
  <defs>
    <style>
      .cls-1 {
        fill: url(#linear-gradient);
      }

      .cls-1, .cls-2, .cls-3 {
        fill-rule: evenodd;
        stroke-width: 0px;
      }

      .cls-2 {
        fill: url(#linear-gradient-2);
      }

      .cls-3 {
        fill: #dc1708;
      }
    </style>
    <linearGradient id="linear-gradient" x1="0" y1="391.53" x2="2695.5" y2="391.53" gradientUnits="userSpaceOnUse">
      <stop offset="0" stop-color="#e6e6e6"/>
      <stop offset="1" stop-color="#100e15"/>
    </linearGradient>
    <linearGradient id="linear-gradient-2" x1="574.85" y1="176.64" x2="2527.8" y2="176.64" xlink:href="#linear-gradient"/>
  </defs>
  <path class="cls-3" d="M2056.25,185.92c-7.59,7.1-13.24,34.19-12.46,45.95.19,5.55,8.76,11.54,21.81,11.77,110.48,0,221.14-3.45,324.74-10.34.35-.02.35-.61,0-.63-92.44-6.05-190.9-9.45-290.21-10.22-9.31-.07-15.47-11.01-11.69-20.71,2.49-6.4,4.69-12.62,6.11-17.95.93-3.49-1.28-7.04-4.48-7.12-12.18-.31-26.99,2.04-33.82,9.25h0Z"/>
  <path class="cls-3" d="M594.31,268.12c50.5-6.2,66.47,34.6,50.77,68.64-.37-.1-.89-.14-1.62-.14-351.51,3.16-188.39,1.05-539.9,8.64,351.51,7.59,175.75,4.85,527.26,8.01,1.24,0,2.91-.51,4.66-1.32-.02.02-.03.04-.05.06.07-.04.13-.09.2-.13,2.66-1.26,5.49-3.22,7.35-5.28,43.74-36.07,4.51-101.71-48.68-78.47Z"/>
  <path class="cls-1" d="M0,391.6c859.31-17.07,1836.19-17.07,2695.5,0-854.49,16.86-1841.01,16.86-2695.5,0h0Z"/>
  <path class="cls-2" d="M2033.56,315.5l307.43-7.24-264.66-10.18c-6.7-.23-10.7-7.85-7.4-13.98.03-.06.07-.12.1-.18,1.55-2.88,4.46-4.64,7.61-4.68l292.58-3.37-316.35-15.16c-16.62,0-25.44-21.68-26.04-27.58-1.4-18.13,6.42-49.95,19.86-61.75.6-.42,1-.84,1.61-1.26,9.63-6.96,21.27-7.8,32.7-9.06,2.21-.21,21.27-3.79,32.7-6.11,14.45-35.41,28.09-52.9,19.26-57.75-11.03-6.11-40.93,31.83-70.22,31.4-30.7-1.05-87.68-13.7-211.27-53.75C1609.71-3.56,1495.95.03,1422.92.03s-277.47,130.89-276.27,131.31c33.91-18.76,173.95-98.22,262.23-98.22,86.87.21,256.61,35.41,296.94,43.63,46.15,9.27,22.67,40.26-.6,54.17-56.38,41.94-400.46,41.1-443.2,41.1-73.83,0-111.15-10.33-129.01-19.18-15.05-6.53-32.3-10.96-48.35-12.01-221.9-2.32-401.67,30.98-509.81,142.48,94.5-63.86,251.79-131.1,481.52-103.91,47.95,5.69,47.75,17.7,75.04,20.66,48.95,5.48,495.16,23.82,614.14-27.61,118.98-51.43,22.87-88.1,22.87-88.1,0,0,6.82,0,68.22,18.34,61.19,18.34,61.39,64.07,59.39,71.66-2.01,7.59-2.41,31.19-84.67,33.09-82.26,1.69-144.46,63.86-148.07,88.31,23.07-39.2,80.45-82.83,176.76-66.18,96.7,16.44,131.41,104.33,148.27,120.77,2.21,3.37,10.03,2.95,12.24,2.95,351.51-3.16,175.75-.42,527.26-8.01-338.21-7.25-194.13-8.28-495.95-8.28-17.54,0-14.54-21.48,1.7-21.48Z"/>
</svg>