<svg width="44" height="44" viewBox="0 0 44 44" fill="none" xmlns="http://www.w3.org/2000/svg">
<path d="M22 5.5C26.0517 5.5 29.3333 8.78167 29.3333 12.8333C29.3333 16.885 26.0517 20.1667 22 20.1667C17.9483 20.1667 14.6667 16.885 14.6667 12.8333C14.6667 8.78167 17.9483 5.5 22 5.5ZM29.3333 24.8233C29.3333 26.7667 28.82 31.295 25.3183 36.355L23.8333 27.5L25.5567 24.0533C24.42 23.925 23.2283 23.8333 22 23.8333C20.7717 23.8333 19.58 23.925 18.4433 24.0533L20.1667 27.5L18.6817 36.355C15.18 31.295 14.6667 26.7667 14.6667 24.8233C10.285 26.1067 7.33334 28.4167 7.33334 31.1667V38.5H36.6667V31.1667C36.6667 28.4167 33.7333 26.1067 29.3333 24.8233Z" fill="#262626"/>
</svg>
