<svg width="44" height="44" viewBox="0 0 44 44" fill="none" xmlns="http://www.w3.org/2000/svg">
<path d="M14.6667 29.3333C14.6667 24.9333 16.6833 21.0833 19.6167 18.3333H5.5L8.25 10.0833H28.4167L29.8833 14.6667C30.9833 14.6667 32.0833 14.85 33 15.2167L30.9833 9.16667C30.6167 8.06667 29.5167 7.33333 28.4167 7.33333H8.25C6.96667 7.33333 6.05 8.06667 5.68334 9.16667L1.83334 20.1667V34.8333C1.83334 35.75 2.75 36.6667 3.66667 36.6667H5.5C6.41667 36.6667 7.33334 35.75 7.33334 34.8333V33H15.2167C14.85 31.9 14.6667 30.6167 14.6667 29.3333ZM8.25 27.5C6.78334 27.5 5.5 26.2167 5.5 24.75C5.5 23.2833 6.78334 22 8.25 22C9.71667 22 11 23.2833 11 24.75C11 26.2167 9.71667 27.5 8.25 27.5ZM29.3333 36.6667V33H23.8333V31.1667H25.6667C27.6833 31.1667 29.3333 29.5167 29.3333 27.5V25.6667C29.3333 23.65 27.6833 22 25.6667 22H20.1667V25.6667H25.6667V27.5H23.8333C21.8167 27.5 20.1667 29.15 20.1667 31.1667V36.6667M42.1667 31.1667H38.5V34.8333H34.8333V31.1667H31.1667V27.5H34.8333V23.8333H38.5V27.5H42.1667V31.1667Z" fill="#262626"/>
</svg>
