<svg width="44" height="44" viewBox="0 0 44 44" fill="none" xmlns="http://www.w3.org/2000/svg">
<path d="M17.6183 29.535C17.6183 25.7217 19.415 22.3483 22.1833 20.1667H9.16667L11.9167 11.9167H32.0833L34.32 18.6267C35.86 19.305 37.2167 20.295 38.335 21.5233L34.6867 11C34.32 9.93667 33.2933 9.16667 32.0833 9.16667H11.9167C10.7067 9.16667 9.68 9.93667 9.31333 11L5.5 22V36.6667C5.5 37.675 6.325 38.5 7.33333 38.5H9.16667C10.175 38.5 11 37.675 11 36.6667V34.8333H18.865C18.0767 33.2383 17.6183 31.4417 17.6183 29.535ZM11.9167 29.3333C10.395 29.3333 9.16667 28.105 9.16667 26.5833C9.16667 25.0617 10.395 23.8333 11.9167 23.8333C13.4383 23.8333 14.6667 25.0617 14.6667 26.5833C14.6667 28.105 13.4383 29.3333 11.9167 29.3333ZM29.535 21.285C34.1183 21.285 37.785 24.9517 37.785 29.535C37.785 31.1667 37.3267 32.67 36.52 33.9167L42.1667 39.6183L39.6183 42.1667L33.9167 36.5383C32.6333 37.3267 31.1667 37.785 29.535 37.785C24.9517 37.785 21.285 34.1183 21.285 29.535C21.285 24.9517 24.9517 21.285 29.535 21.285ZM29.535 24.9517C28.6285 24.9517 27.7424 25.2205 26.9886 25.7241C26.2349 26.2277 25.6475 26.9435 25.3006 27.781C24.9537 28.6185 24.8629 29.5401 25.0397 30.4292C25.2166 31.3182 25.6531 32.1349 26.2941 32.7759C26.9351 33.4169 27.7518 33.8534 28.6408 34.0303C29.5299 34.2071 30.4515 34.1164 31.289 33.7695C32.1265 33.4226 32.8423 32.8351 33.3459 32.0814C33.8495 31.3276 34.1183 30.4415 34.1183 29.535C34.1183 26.9867 32.0833 24.9517 29.535 24.9517Z" fill="#262626"/>
</svg>
