<svg width="44" height="44" viewBox="0 0 44 44" fill="none" xmlns="http://www.w3.org/2000/svg">
<path d="M40.3333 23.8333V27.5H33.5867C34.375 25.8317 34.8333 23.98 34.8333 22C34.8333 14.9233 29.0767 9.16667 22 9.16667H3.66667V5.5H22C26.3761 5.5 30.5729 7.23839 33.6673 10.3327C36.7616 13.4271 38.5 17.6239 38.5 22C38.5 22.6233 38.445 23.2283 38.39 23.8333H40.3333ZM22 34.8333C14.9233 34.8333 9.16667 29.0767 9.16667 22C9.16667 20.0383 9.625 18.1683 10.4317 16.5H3.66667V20.1667H5.61C5.555 20.7717 5.5 21.3767 5.5 22C5.5 26.3761 7.23839 30.5729 10.3327 33.6673C13.4271 36.7616 17.6239 38.5 22 38.5H40.3333V34.8333H22ZM30.91 22.3667C29.205 23.7233 26.9867 22.8617 25.6667 22.0917V22C30.7817 18.9017 28.215 14.465 28.215 14.465C28.215 14.465 26.2717 11.0733 26.785 14.465C27.0967 16.6283 25.2267 18.1133 23.9067 18.8833L23.8333 18.8467C23.705 12.8333 18.5717 12.8333 18.5717 12.8333C18.5717 12.8333 14.6667 12.8333 17.8567 14.0983C19.8917 14.905 20.24 17.27 20.2583 18.7917L20.1667 18.8467C14.9233 15.95 12.3567 20.3867 12.3567 20.3867C12.3567 20.3867 10.395 23.7783 13.09 21.6333C14.795 20.295 17.0133 21.1567 18.3333 21.9083V22C13.2183 25.1167 15.785 29.5533 15.785 29.5533C15.785 29.5533 17.7283 32.945 17.2333 29.535C16.9033 27.39 18.7917 25.905 20.1117 25.1167L20.1667 25.1717C20.295 31.1667 25.4283 31.1667 25.4283 31.1667C25.4283 31.1667 29.3333 31.1667 26.1433 29.9017C24.1083 29.095 23.76 26.73 23.7417 25.2083L23.8333 25.1717C29.0767 28.0683 31.6433 23.6133 31.6433 23.6133C31.6433 23.6133 33.605 20.24 30.91 22.3667Z" fill="#262626"/>
</svg>
