<svg width="44" height="44" viewBox="0 0 44 44" fill="none" xmlns="http://www.w3.org/2000/svg">
<path d="M9.16667 20.1667L11.9167 11.9167H32.0833L34.8333 20.1667M32.0833 29.3333C31.354 29.3333 30.6545 29.0436 30.1388 28.5279C29.6231 28.0122 29.3333 27.3127 29.3333 26.5833C29.3333 25.854 29.6231 25.1545 30.1388 24.6388C30.6545 24.1231 31.354 23.8333 32.0833 23.8333C32.8127 23.8333 33.5122 24.1231 34.0279 24.6388C34.5436 25.1545 34.8333 25.854 34.8333 26.5833C34.8333 27.3127 34.5436 28.0122 34.0279 28.5279C33.5122 29.0436 32.8127 29.3333 32.0833 29.3333ZM11.9167 29.3333C11.1873 29.3333 10.4878 29.0436 9.97212 28.5279C9.4564 28.0122 9.16667 27.3127 9.16667 26.5833C9.16667 25.854 9.4564 25.1545 9.97212 24.6388C10.4878 24.1231 11.1873 23.8333 11.9167 23.8333C12.646 23.8333 13.3455 24.1231 13.8612 24.6388C14.3769 25.1545 14.6667 25.854 14.6667 26.5833C14.6667 27.3127 14.3769 28.0122 13.8612 28.5279C13.3455 29.0436 12.646 29.3333 11.9167 29.3333ZM34.6867 11C34.32 9.93667 33.2933 9.16667 32.0833 9.16667H11.9167C10.7067 9.16667 9.68 9.93667 9.31333 11L5.5 22V36.6667C5.5 37.1529 5.69315 37.6192 6.03697 37.963C6.38079 38.3069 6.8471 38.5 7.33333 38.5H9.16667C9.6529 38.5 10.1192 38.3069 10.463 37.963C10.8068 37.6192 11 37.1529 11 36.6667V34.8333H33V36.6667C33 37.1529 33.1932 37.6192 33.537 37.963C33.8808 38.3069 34.3471 38.5 34.8333 38.5H36.6667C37.1529 38.5 37.6192 38.3069 37.963 37.963C38.3068 37.6192 38.5 37.1529 38.5 36.6667V22L34.6867 11Z" fill="#262626"/>
</svg>
