<svg width="44" height="44" viewBox="0 0 44 44" fill="none" xmlns="http://www.w3.org/2000/svg">
<path d="M23.8333 36.52C27.1333 36.1167 29.975 34.7417 32.3583 32.3583C34.7417 29.975 36.1167 27.1333 36.52 23.8333H31.02C30.6167 25.6667 29.7733 27.2067 28.49 28.49C27.2067 29.7733 25.6667 30.6167 23.8333 31.02V36.52ZM18.3333 14.6667H25.6667L31.1667 20.1667H36.52C36.0617 16.5917 34.4483 13.53 31.6617 11C28.8933 8.54333 25.6667 7.33333 22 7.33333C18.3333 7.33333 15.1067 8.54333 12.3383 11C9.55166 13.53 7.93833 16.5917 7.48 20.1667H12.8333L18.3333 14.6667ZM20.1667 36.52V31.02C18.3333 30.6167 16.7933 29.7733 15.51 28.49C14.2267 27.2067 13.3833 25.6667 12.98 23.8333H7.48C7.88333 27.0783 9.25833 29.8833 11.6417 32.2667C14.025 34.65 16.8667 36.0617 20.1667 36.52ZM22 3.66666C27.0417 3.66666 31.35 5.5 34.925 9.075C38.5 12.65 40.3333 16.9583 40.3333 22C40.3333 27.0417 38.5 31.35 34.925 34.925C31.35 38.5 27.0417 40.3333 22 40.3333C16.9583 40.3333 12.65 38.5 9.075 34.925C5.5 31.35 3.66666 27.0417 3.66666 22C3.66666 16.9583 5.5 12.65 9.075 9.075C12.65 5.5 16.9583 3.66666 22 3.66666Z" fill="black"/>
</svg>
