<svg width="44" height="44" viewBox="0 0 44 44" fill="none" xmlns="http://www.w3.org/2000/svg">
<path d="M27.5 5.5H9.16667C8.19421 5.5 7.26158 5.88631 6.57394 6.57394C5.88631 7.26158 5.5 8.19421 5.5 9.16667V34.8333C5.5 35.8058 5.88631 36.7384 6.57394 37.4261C7.26158 38.1137 8.19421 38.5 9.16667 38.5H34.8333C35.8058 38.5 36.7384 38.1137 37.4261 37.4261C38.1137 36.7384 38.5 35.8058 38.5 34.8333V16.5L27.5 5.5ZM34.8333 34.8333H9.16667V9.16667H25.6667V18.3333H34.8333M31.1667 25.6667H12.8333V22H31.1667M25.6667 31.1667H12.8333V27.5H25.6667" fill="#262626"/>
</svg>
