<svg width="44" height="44" viewBox="0 0 44 44" fill="none" xmlns="http://www.w3.org/2000/svg">
<path d="M29.4433 23.9983L39.765 34.2467L33.6783 40.26L23.43 30.0117V28.325L27.7567 23.9983H29.4433ZM31.1117 19.36L29.3333 17.6L20.5517 26.4V30.0117L10.23 40.3333L4.21667 34.2467L14.465 23.9983H18.0767L19.5067 22.5683L12.4667 15.51H10.0833L4.93167 10.3033L9.735 5.5L14.8683 10.6333V13.035L22 20.075L26.8767 15.1983L25.1167 13.3467L27.5 10.945H22.6233L21.4317 9.75333L27.5 3.66666L28.71 4.87666V9.75333L31.1117 7.33333L37.125 13.3467C39.1233 15.3633 39.1233 18.645 37.125 20.6433L33.5133 16.9583L31.1117 19.36Z" fill="#262626"/>
</svg>
