<svg width="217" height="32" viewBox="0 0 217 32" fill="none" xmlns="http://www.w3.org/2000/svg">
<path fill-rule="evenodd" clip-rule="evenodd" d="M185.044 0.722412L159.202 30.9736H171.864L197.654 0.746896L185.044 0.722412ZM202.887 0.722412L177.044 30.9736H189.706L215.496 0.746896L202.887 0.722412Z" fill="#262626"/>
<path fill-rule="evenodd" clip-rule="evenodd" d="M54.5112 7.9944C50.8415 7.9833 37.9637 8.31129 37.9637 14.2652C37.9637 18.4545 43.9884 19.6612 48.9622 20.2033C52.4831 20.5872 55.4677 20.5688 55.4677 20.5688C55.4677 20.5688 58.2655 20.6816 61.6549 20.4875C66.9133 20.1849 73.6074 18.987 73.6074 14.2634C73.6074 8.02684 56.1285 8.00463 55.4556 8.00463C55.3717 8.00463 55.0353 7.99598 54.5112 7.9944ZM19.9408 8.16858L2.86576 8.1754C2.86576 8.1754 2.06576 8.10615 1.58905 8.48285C1.1439 8.83419 1.13975 9.62728 1.13975 9.62728L1.01305 19.0027C1.01305 20.4551 2.64314 20.3406 2.64314 20.3406L20.5363 20.3266C20.5363 20.3266 26.4174 20.4744 30.4287 19.1007C33.0578 18.2009 34.4096 16.4757 34.4096 14.2844C34.4096 11.8325 32.0736 10.1397 28.9082 9.25128C24.9316 8.13632 19.9408 8.16858 19.9408 8.16858ZM96.067 8.16858L78.9981 8.1754C78.9981 8.1754 78.1972 8.10615 77.7207 8.48285C77.2753 8.83419 77.2718 9.62728 77.2718 9.62728L77.1429 19.0027C77.1429 20.4551 78.7732 20.3406 78.7732 20.3406L96.6725 20.3266C96.6725 20.3266 102.545 20.4744 106.558 19.1007C109.187 18.2009 110.545 16.4757 110.545 14.2844C110.545 11.8325 108.21 10.1397 105.036 9.25128C101.066 8.13632 96.067 8.16858 96.067 8.16858ZM147.155 8.18223C146.999 8.18223 127.349 8.19761 127.349 8.19761C127.349 8.19761 125.879 8.18922 123.924 8.36673C120.007 8.72156 114.125 9.92983 114.125 14.2652C114.125 16.2824 115.206 17.7112 117.075 18.6136C121.139 20.4726 128.214 20.3336 128.214 20.3336H145.892C147.44 20.3336 147.596 19.4085 147.596 18.7841C147.596 18.1607 147.639 15.6878 147.639 14.2652C147.639 12.8434 146.117 12.964 146.117 12.964H130.385C129.693 12.964 129.693 13.5333 129.693 13.5333C129.693 13.5333 129.658 14.266 129.658 14.9166C129.658 15.5689 130.316 15.5514 130.316 15.5514H139.388C139.985 15.5514 140.054 16.0385 140.054 16.0385V17.1402C140.054 17.7069 139.457 17.7445 139.457 17.7445H129.044C127.436 17.7445 121.797 17.7445 121.797 14.2652C121.797 10.7868 128.456 10.7544 128.456 10.7544H147.059C147.812 10.7544 147.708 9.83889 147.708 9.83889V8.69288C147.708 8.1949 147.31 8.18223 147.155 8.18223ZM153.261 8.19079C151.868 8.19079 151.418 8.4205 151.375 9.72084C151.341 10.7492 151.228 17.1735 151.228 18.66C151.228 20.1447 152.041 20.3336 153.01 20.3336H181.516C182.156 20.3336 182.13 19.8317 182.13 19.7171V18.2857C182.13 17.741 181.343 17.7445 181.343 17.7445H159.782C158.943 17.7445 158.969 17.2181 158.969 17.2181C158.969 17.2181 158.977 16.7196 158.977 16.1626C158.977 15.6074 159.479 15.5173 159.721 15.5173H180.011C180.608 15.5173 180.599 14.9507 180.599 14.9507V13.5333C180.599 12.9203 179.864 12.9439 179.864 12.9439H159.652C158.977 12.9439 158.969 12.2523 158.969 12.2523L158.986 11.4802C158.986 10.8104 159.652 10.7544 159.652 10.7544H181.031C181.663 10.7544 181.749 10.2936 181.749 9.83889V8.69288C181.749 8.14113 180.997 8.19079 180.997 8.19079H153.261ZM55.5135 10.5769C57.3003 10.5769 65.9395 10.7343 65.9395 14.308C65.949 18.1476 57.8781 17.9255 55.5135 17.9255C53.1481 17.9255 45.693 17.7786 45.693 14.308C45.693 10.4676 53.7259 10.5769 55.5135 10.5769ZM20.0999 10.7544C20.0999 10.7544 22.5008 10.848 24.336 11.5519C25.7743 12.1036 26.7455 13.0987 26.7455 14.2704C26.7455 15.2567 26.1133 16.251 24.97 16.7808C23.0145 17.6859 20.0913 17.741 20.0913 17.741L9.07462 17.7479C9.07462 17.7479 8.45296 17.7637 8.45296 17.1805C8.45296 17.1805 8.55095 11.412 8.55095 11.3368C8.55095 11.2607 8.54377 10.7614 9.20089 10.7614C9.95679 10.7614 20.0999 10.7544 20.0999 10.7544ZM96.2271 10.7544C96.2271 10.7544 98.6314 10.848 100.465 11.5519C101.909 12.1036 102.878 13.0987 102.878 14.2704C102.878 15.2567 102.247 16.251 101.096 16.7808C99.1416 17.6859 96.2184 17.741 96.2184 17.741L85.2043 17.7479C85.2043 17.7479 84.5851 17.7637 84.5851 17.1805C84.5851 17.1805 84.6811 11.412 84.6811 11.3368C84.6811 11.2607 84.6742 10.7614 85.3315 10.7614C86.0865 10.7614 96.2271 10.7544 96.2271 10.7544Z" fill="#262626"/>
</svg>
