<svg width="109" height="16" viewBox="0 0 109 16" fill="none" xmlns="http://www.w3.org/2000/svg">
<g clip-path="url(#clip0_143_166)">
<path fill-rule="evenodd" clip-rule="evenodd" d="M92.5492 0.361206L79.6281 15.4868H85.9589L98.8541 0.373448L92.5492 0.361206ZM101.47 0.361206L88.5492 15.4868H94.88L107.775 0.373448L101.47 0.361206Z" fill="#262626"/>
<path fill-rule="evenodd" clip-rule="evenodd" d="M27.2826 3.9972C25.4478 3.99164 19.0089 4.15564 19.0089 7.13258C19.0089 9.22723 22.0212 9.83058 24.5081 10.1016C26.2686 10.2936 27.7609 10.2844 27.7609 10.2844C27.7609 10.2844 29.1598 10.3408 30.8545 10.2437C33.4837 10.0925 36.8307 9.49349 36.8307 7.1317C36.8307 4.01342 28.0913 4.00231 27.7548 4.00231C27.7129 4.00231 27.5447 3.99798 27.2826 3.9972ZM9.99742 4.08429L1.45991 4.0877C1.46008 4.0877 1.05991 4.05307 0.821554 4.24142C0.598981 4.41709 0.596905 4.81364 0.596905 4.81364L0.533554 9.50136C0.533554 10.2276 1.3486 10.1703 1.3486 10.1703L10.2952 10.1633C10.2952 10.1633 13.2357 10.2372 15.2414 9.55033C16.556 9.10044 17.2318 8.23784 17.2318 7.1422C17.2318 5.91627 16.0638 5.06984 14.4811 4.62564C12.4928 4.06816 9.99742 4.08429 9.99742 4.08429ZM48.0606 4.08429L39.5261 4.0877C39.5261 4.0877 39.1256 4.05307 38.8874 4.24142C38.6647 4.41709 38.6629 4.81364 38.6629 4.81364L38.5985 9.50136C38.5985 10.2276 39.4136 10.1703 39.4136 10.1703L48.3633 10.1633C48.3633 10.1633 51.2995 10.2372 53.306 9.55033C54.6206 9.10044 55.2995 8.23784 55.2995 7.1422C55.2995 5.91627 54.1319 5.06984 52.5449 4.62564C50.56 4.06816 48.0606 4.08429 48.0606 4.08429ZM73.6043 4.09111C73.5265 4.09111 63.7016 4.0988 63.7016 4.0988C63.7016 4.0988 62.9665 4.09461 61.9892 4.18336C60.0303 4.36078 57.0897 4.96491 57.0897 7.13258C57.0897 8.14121 57.6303 8.85561 58.5643 9.30681C60.5968 10.2363 64.1341 10.1668 64.1341 10.1668H72.973C73.747 10.1668 73.8249 9.70423 73.8249 9.39206C73.8249 9.08033 73.8465 7.84391 73.8465 7.13258C73.8465 6.42168 73.0854 6.48202 73.0854 6.48202H65.2195C64.8735 6.48202 64.8735 6.76664 64.8735 6.76664C64.8735 6.76664 64.8562 7.13302 64.8562 7.4583C64.8562 7.78445 65.1849 7.77571 65.1849 7.77571H69.7211C70.0195 7.77571 70.0541 8.01923 70.0541 8.01923V8.57011C70.0541 8.85342 69.7557 8.87222 69.7557 8.87222H64.5492C63.7449 8.87222 60.9254 8.87222 60.9254 7.13258C60.9254 5.39337 64.2551 5.37719 64.2551 5.37719H73.5568C73.933 5.37719 73.8811 4.91944 73.8811 4.91944V4.34644C73.8811 4.09745 73.6822 4.09111 73.6043 4.09111ZM76.6573 4.09539C75.9611 4.09539 75.7362 4.21025 75.7146 4.86042C75.6973 5.37457 75.6411 8.58673 75.6411 9.32998C75.6411 10.0724 76.0476 10.1668 76.5319 10.1668H90.7849C91.1049 10.1668 91.0919 9.91583 91.0919 9.85856V9.14285C91.0919 8.87047 90.6984 8.87222 90.6984 8.87222H79.9178C79.4984 8.87222 79.5114 8.60902 79.5114 8.60902C79.5114 8.60902 79.5157 8.35982 79.5157 8.08132C79.5157 7.80369 79.7665 7.75866 79.8876 7.75866H90.0324C90.3308 7.75866 90.3265 7.47535 90.3265 7.47535V6.76664C90.3265 6.46016 89.9589 6.47196 89.9589 6.47196H79.853C79.5157 6.47196 79.5114 6.12613 79.5114 6.12613L79.52 5.74008C79.52 5.40518 79.853 5.37719 79.853 5.37719H90.5427C90.8584 5.37719 90.9016 5.14679 90.9016 4.91944V4.34644C90.9016 4.07056 90.5254 4.09539 90.5254 4.09539H76.6573ZM27.7838 5.28844C28.6772 5.28844 32.9968 5.36714 32.9968 7.154C33.0015 9.07377 28.9661 8.96272 27.7838 8.96272C26.6011 8.96272 22.8735 8.88927 22.8735 7.154C22.8735 5.23379 26.89 5.28844 27.7838 5.28844ZM10.077 5.37719C10.077 5.37719 11.2774 5.42398 12.195 5.77593C12.9142 6.0518 13.3998 6.54934 13.3998 7.1352C13.3998 7.62837 13.0837 8.12547 12.512 8.39042C11.5343 8.84293 10.0727 8.87047 10.0727 8.87047L4.56434 8.87397C4.56434 8.87397 4.25351 8.88184 4.25351 8.59022C4.25351 8.59022 4.30251 5.70597 4.30251 5.66837C4.30251 5.63034 4.29892 5.38069 4.62748 5.38069C5.00542 5.38069 10.077 5.37719 10.077 5.37719ZM48.1406 5.37719C48.1406 5.37719 49.3427 5.42398 50.2595 5.77593C50.9816 6.0518 51.466 6.54934 51.466 7.1352C51.466 7.62837 51.1503 8.12547 50.5751 8.39042C49.5979 8.84293 48.1362 8.87047 48.1362 8.87047L42.6292 8.87397C42.6292 8.87397 42.3196 8.88184 42.3196 8.59022C42.3196 8.59022 42.3676 5.70597 42.3676 5.66837C42.3676 5.63034 42.3641 5.38069 42.6928 5.38069C43.0703 5.38069 48.1406 5.37719 48.1406 5.37719Z" fill="#262626"/>
</g>
<defs>
<clipPath id="clip0_143_166">
<rect width="108.108" height="16" fill="white" transform="translate(0.0270233)"/>
</clipPath>
</defs>
</svg>
