<svg width="163" height="24" viewBox="0 0 163 24" fill="none" xmlns="http://www.w3.org/2000/svg">
<path fill-rule="evenodd" clip-rule="evenodd" d="M138.783 0.541809L119.402 23.2302H128.898L148.241 0.560172L138.783 0.541809ZM152.165 0.541809L132.783 23.2302H142.28L161.622 0.560172L152.165 0.541809Z" fill="#262626"/>
<path fill-rule="evenodd" clip-rule="evenodd" d="M40.8834 5.9958C38.1312 5.98747 28.4728 6.23346 28.4728 10.6989C28.4728 13.8408 32.9913 14.7459 36.7217 15.1525C39.3623 15.4404 41.6008 15.4266 41.6008 15.4266C41.6008 15.4266 43.6992 15.5112 46.2412 15.3656C50.185 15.1387 55.2055 14.2402 55.2055 10.6976C55.2055 6.02013 42.0964 6.00347 41.5917 6.00347C41.5288 6.00347 41.2765 5.99698 40.8834 5.9958ZM14.9556 6.12643L2.14933 6.13155C2.14959 6.13155 1.54933 6.07961 1.1918 6.36213C0.857937 6.62563 0.854823 7.22045 0.854823 7.22045L0.759796 14.252C0.759796 15.3413 1.98237 15.2554 1.98237 15.2554L15.4023 15.2449C15.4023 15.2449 19.8131 15.3558 22.8215 14.3255C24.7934 13.6507 25.8072 12.3568 25.8072 10.7133C25.8072 8.87441 24.0552 7.60476 21.6812 6.93846C18.6987 6.10223 14.9556 6.12643 14.9556 6.12643ZM72.0503 6.12643L59.2486 6.13155C59.2486 6.13155 58.6479 6.07961 58.2905 6.36213C57.9565 6.62563 57.9539 7.22045 57.9539 7.22045L57.8572 14.252C57.8572 15.3413 59.0799 15.2554 59.0799 15.2554L72.5044 15.2449C72.5044 15.2449 76.9087 15.3558 79.9184 14.3255C81.8903 13.6507 82.9087 12.3568 82.9087 10.7133C82.9087 8.87441 81.1573 7.60476 78.7768 6.93846C75.7995 6.10223 72.0503 6.12643 72.0503 6.12643ZM110.366 6.13666C110.249 6.13666 95.5119 6.14821 95.5119 6.14821C95.5119 6.14821 94.4092 6.14191 92.9433 6.27504C90.0049 6.54117 85.5941 7.44736 85.5941 10.6989C85.5941 12.2118 86.4049 13.2834 87.806 13.9602C90.8546 15.3545 96.1606 15.2502 96.1606 15.2502H109.419C110.58 15.2502 110.697 14.5563 110.697 14.0881C110.697 13.6205 110.729 11.7659 110.729 10.6989C110.729 9.63252 109.588 9.72302 109.588 9.72302H97.7887C97.2698 9.72302 97.2698 10.15 97.2698 10.15C97.2698 10.15 97.2438 10.6995 97.2438 11.1874C97.2438 11.6767 97.7368 11.6636 97.7368 11.6636H104.541C104.989 11.6636 105.041 12.0288 105.041 12.0288V12.8552C105.041 13.2801 104.593 13.3083 104.593 13.3083H96.7833C95.5768 13.3083 91.3476 13.3083 91.3476 10.6989C91.3476 8.09006 96.3422 8.06579 96.3422 8.06579H110.295C110.859 8.06579 110.781 7.37916 110.781 7.37916V6.51966C110.781 6.14617 110.483 6.13666 110.366 6.13666ZM114.945 6.14309C113.901 6.14309 113.564 6.31537 113.531 7.29063C113.505 8.06186 113.421 12.8801 113.421 13.995C113.421 15.1085 114.031 15.2502 114.757 15.2502H136.137C136.617 15.2502 136.597 14.8738 136.597 14.7878V13.7143C136.597 13.3057 136.007 13.3083 136.007 13.3083H119.836C119.207 13.3083 119.227 12.9135 119.227 12.9135C119.227 12.9135 119.233 12.5397 119.233 12.122C119.233 11.7055 119.609 11.638 119.791 11.638H135.008C135.456 11.638 135.449 11.213 135.449 11.213V10.15C135.449 9.69023 134.898 9.70794 134.898 9.70794H119.739C119.233 9.70794 119.227 9.18919 119.227 9.18919L119.239 8.61011C119.239 8.10776 119.739 8.06579 119.739 8.06579H135.774C136.247 8.06579 136.312 7.72018 136.312 7.37916V6.51966C136.312 6.10584 135.748 6.14309 135.748 6.14309H114.945ZM41.6352 7.93266C42.9753 7.93266 49.4546 8.05071 49.4546 10.731C49.4618 13.6107 43.4086 13.4441 41.6352 13.4441C39.8611 13.4441 34.2698 13.3339 34.2698 10.731C34.2698 7.85069 40.2944 7.93266 41.6352 7.93266ZM15.075 8.06579C15.075 8.06579 16.8756 8.13596 18.252 8.66389C19.3307 9.07771 20.0592 9.82402 20.0592 10.7028C20.0592 11.4426 19.585 12.1882 18.7275 12.5856C17.2609 13.2644 15.0685 13.3057 15.0685 13.3057L6.80598 13.311C6.80598 13.311 6.33973 13.3228 6.33973 12.8853C6.33973 12.8853 6.41322 8.55896 6.41322 8.50256C6.41322 8.44551 6.40784 8.07104 6.90068 8.07104C7.4676 8.07104 15.075 8.06579 15.075 8.06579ZM72.1703 8.06579C72.1703 8.06579 73.9735 8.13596 75.3487 8.66389C76.4319 9.07771 77.1584 9.82402 77.1584 10.7028C77.1584 11.4426 76.6849 12.1882 75.8222 12.5856C74.3562 13.2644 72.1638 13.3057 72.1638 13.3057L63.9033 13.311C63.9033 13.311 63.4388 13.3228 63.4388 12.8853C63.4388 12.8853 63.5108 8.55896 63.5108 8.50256C63.5108 8.44551 63.5057 8.07104 63.9986 8.07104C64.5649 8.07104 72.1703 8.06579 72.1703 8.06579Z" fill="#262626"/>
</svg>
