<svg width="47" height="16" viewBox="0 0 47 16" fill="none" xmlns="http://www.w3.org/2000/svg">
<path d="M38.8043 8.69454e-06C36.8929 8.69454e-06 35.1395 0.670528 33.7638 1.78806C32.3399 0.62894 30.5594 -0.00270295 28.7233 8.69454e-06C26.812 8.69454e-06 25.0586 0.670528 23.6829 1.78806C22.259 0.62894 20.4784 -0.00270295 18.6424 8.69454e-06C16.7311 8.69454e-06 14.9777 0.670528 13.602 1.78806C12.4282 0.835517 11.0085 0.23504 9.50744 0.0561946C8.00639 -0.12265 6.48537 0.127457 5.12062 0.777542C3.75587 1.42763 2.60324 2.45108 1.79626 3.72934C0.989275 5.00759 0.560974 6.48833 0.560974 8C0.560974 9.51167 0.989275 10.9924 1.79626 12.2707C2.60324 13.5489 3.75587 14.5724 5.12062 15.2225C6.48537 15.8725 8.00639 16.1227 9.50744 15.9438C11.0085 15.765 12.4282 15.1645 13.602 14.2119C14.9777 15.3295 16.7311 16 18.6424 16C20.5538 16 22.3072 15.3295 23.6829 14.2119C25.0586 15.3295 26.812 16 28.7233 16C30.6347 16 32.3881 15.3295 33.7638 14.2119C34.7581 15.0189 35.9317 15.5753 37.1857 15.8344C38.4398 16.0936 39.7377 16.0479 40.9705 15.7013C42.2032 15.3546 43.3347 14.7171 44.2699 13.8423C45.2051 12.9675 45.9166 11.881 46.3446 10.6741C46.7727 9.46721 46.9047 8.17519 46.7297 6.90665C46.5547 5.63811 46.0777 4.43012 45.3389 3.38421C44.6 2.3383 43.6209 1.48503 42.4838 0.896137C41.3467 0.307242 40.0848 -7.80696e-05 38.8043 8.69454e-06ZM33.7638 11.5954C33.013 10.547 32.61 9.2895 32.6116 8C32.6116 6.65896 33.0393 5.41812 33.7638 4.40463C34.4883 5.41812 34.916 6.65896 34.916 8C34.916 9.34104 34.4883 10.5819 33.7638 11.5954ZM23.6829 11.5954C22.9321 10.547 22.5291 9.2895 22.5307 8C22.5307 6.65896 22.9584 5.41812 23.6829 4.40463C24.4074 5.41812 24.8351 6.65896 24.8351 8C24.8351 9.34104 24.4074 10.5819 23.6829 11.5954ZM13.602 11.5954C12.8512 10.547 12.4482 9.2895 12.4498 8C12.4498 6.65896 12.8775 5.41812 13.602 4.40463C14.3264 5.41812 14.7542 6.65896 14.7542 8C14.7542 9.34104 14.3264 10.5819 13.602 11.5954ZM2.36884 8C2.36929 6.84449 2.69304 5.71214 3.30346 4.73102C3.91389 3.7499 4.78665 2.95914 5.82305 2.44816C6.85944 1.93718 8.01813 1.72636 9.16809 1.83955C10.3181 1.95273 11.4134 2.38541 12.3303 3.08864C11.2348 4.49123 10.6406 6.22029 10.6424 8C10.6424 9.85164 11.2744 11.5568 12.3303 12.9114C11.4134 13.6146 10.3181 14.0473 9.16809 14.1605C8.01813 14.2736 6.85944 14.0628 5.82305 13.5518C4.78665 13.0409 3.91389 12.2501 3.30346 11.269C2.69304 10.2879 2.36929 9.15552 2.36884 8ZM14.8736 12.9114C15.9691 11.5088 16.5634 9.77971 16.5615 8C16.5615 6.14837 15.9295 4.44317 14.8736 3.08864C15.9539 2.25699 17.2791 1.80644 18.6424 1.80733C20.0605 1.80733 21.3669 2.28517 22.4112 3.08864C21.3152 4.49094 20.7209 6.22019 20.7233 8C20.7233 9.85164 21.3553 11.5568 22.4112 12.9114C21.331 13.743 20.0057 14.1936 18.6424 14.1927C17.279 14.1946 15.9534 13.7439 14.8736 12.9114ZM24.9546 12.9114C26.0506 11.5091 26.6449 9.77981 26.6424 8C26.6424 6.14837 26.0104 4.44316 24.9546 3.08671C25.9989 2.28517 27.3052 1.8054 28.7233 1.8054C30.1415 1.8054 31.4478 2.28324 32.4921 3.08671C31.3961 4.48901 30.8018 6.21826 30.8043 7.99807C30.8043 9.84971 31.4362 11.5549 32.4921 12.9094C31.4119 13.7411 30.0866 14.1916 28.7233 14.1907C27.36 14.1941 26.0342 13.744 24.9546 12.9114ZM38.8043 14.1927C37.4408 14.1946 36.1152 13.7439 35.0355 12.9114C36.1307 11.5086 36.7249 9.77966 36.7233 8C36.7233 6.14837 36.0914 4.44317 35.0355 3.08864C35.8162 2.48906 36.7285 2.08423 37.697 1.90771C38.6654 1.73119 39.6619 1.78807 40.6039 2.07364C41.546 2.3592 42.4064 2.86522 43.1138 3.54974C43.8211 4.23426 44.3552 5.07755 44.6716 6.00968C44.9879 6.94182 45.0775 7.93595 44.9329 8.90964C44.7883 9.88333 44.4137 10.8085 43.8401 11.6085C43.2665 12.4085 42.5105 13.0602 41.6347 13.5096C40.7589 13.959 39.7886 14.1932 38.8043 14.1927Z" fill="#262626"/>
</svg>
