<svg width="70" height="24" viewBox="0 0 70 24" fill="none" xmlns="http://www.w3.org/2000/svg">
<path d="M57.3649 1.30418e-05C54.4979 1.30418e-05 51.8678 1.00579 49.8042 2.68209C47.6684 0.94341 44.9976 -0.00405442 42.2436 1.30418e-05C39.3765 1.30418e-05 36.7464 1.00579 34.6829 2.68209C32.5471 0.94341 29.8762 -0.00405442 27.1222 1.30418e-05C24.2551 1.30418e-05 21.6251 1.00579 19.5615 2.68209C17.8008 1.25328 15.6713 0.352559 13.4197 0.0842919C11.1681 -0.183976 8.8866 0.191186 6.83948 1.16631C4.79235 2.14144 3.0634 3.67662 1.85292 5.594C0.642451 7.51139 0 9.73249 0 12C0 14.2675 0.642451 16.4886 1.85292 18.406C3.0634 20.3234 4.79235 21.8586 6.83948 22.8337C8.8866 23.8088 11.1681 24.184 13.4197 23.9157C15.6713 23.6474 17.8008 22.7467 19.5615 21.3179C21.6251 22.9942 24.2551 24 27.1222 24C29.9892 24 32.6193 22.9942 34.6829 21.3179C36.7464 22.9942 39.3765 24 42.2436 24C45.1106 24 47.7407 22.9942 49.8042 21.3179C51.2958 22.5283 53.056 23.3629 54.9371 23.7517C56.8182 24.1404 58.7651 24.0719 60.6142 23.5519C62.4634 23.0319 64.1606 22.0757 65.5634 20.7635C66.9661 19.4513 68.0334 17.8215 68.6755 16.0112C69.3176 14.2008 69.5156 12.2628 69.2531 10.36C68.9906 8.45716 68.2751 6.64517 67.1669 5.07631C66.0586 3.50744 64.5899 2.22755 62.8842 1.34421C61.1786 0.460863 59.2858 -0.000117104 57.3649 1.30418e-05ZM49.8042 17.3931C48.678 15.8205 48.0735 13.9342 48.0759 12C48.0759 9.98844 48.7175 8.12717 49.8042 6.60694C50.8909 8.12717 51.5326 9.98844 51.5326 12C51.5326 14.0116 50.8909 15.8728 49.8042 17.3931ZM34.6829 17.3931C33.5566 15.8205 32.9522 13.9342 32.9545 12C32.9545 9.98844 33.5962 8.12717 34.6829 6.60694C35.7696 8.12717 36.4112 9.98844 36.4112 12C36.4112 14.0116 35.7696 15.8728 34.6829 17.3931ZM19.5615 17.3931C18.4353 15.8205 17.8308 13.9342 17.8332 12C17.8332 9.98844 18.4748 8.12717 19.5615 6.60694C20.6482 8.12717 21.2898 9.98844 21.2898 12C21.2898 14.0116 20.6482 15.8728 19.5615 17.3931ZM2.71179 12C2.71248 10.2667 3.1981 8.56822 4.11374 7.09654C5.02938 5.62486 6.33851 4.43872 7.89311 3.67224C9.4477 2.90577 11.1857 2.58955 12.9107 2.75932C14.6356 2.9291 16.2786 3.57811 17.654 4.63296C16.0107 6.73684 15.1194 9.33044 15.1222 12C15.1222 14.7775 16.0702 17.3353 17.654 19.367C16.2786 20.4219 14.6356 21.0709 12.9107 21.2407C11.1857 21.4105 9.4477 21.0942 7.89311 20.3278C6.33851 19.5613 5.02938 18.3751 4.11374 16.9035C3.1981 15.4318 2.71248 13.7333 2.71179 12ZM21.469 19.367C23.1123 17.2632 24.0036 14.6696 24.0008 12C24.0008 9.22255 23.0528 6.66475 21.469 4.63296C23.0894 3.38549 25.0772 2.70966 27.1222 2.71099C29.2493 2.71099 31.2089 3.42776 32.7754 4.63296C31.1313 6.73641 30.2399 9.33029 30.2436 12C30.2436 14.7775 31.1915 17.3353 32.7754 19.367C31.155 20.6145 29.1671 21.2903 27.1222 21.289C25.077 21.2919 23.0887 20.6159 21.469 19.367ZM36.5904 19.367C38.2344 17.2636 39.1259 14.6697 39.1222 12C39.1222 9.22255 38.1742 6.66475 36.5904 4.63007C38.1569 3.42776 40.1164 2.7081 42.2436 2.7081C44.3707 2.7081 46.3303 3.42487 47.8967 4.63007C46.2527 6.73352 45.3613 9.3274 45.3649 11.9971C45.3649 14.7746 46.3129 17.3324 47.8967 19.3642C46.2763 20.6116 44.2885 21.2875 42.2436 21.2861C40.1985 21.2911 38.2098 20.616 36.5904 19.367ZM57.3649 21.289C55.3197 21.2919 53.3314 20.6159 51.7118 19.367C53.3546 17.263 54.2459 14.6695 54.2435 12C54.2435 9.22255 53.2956 6.66475 51.7118 4.63296C52.8828 3.73359 54.2514 3.12634 55.704 2.86156C57.1566 2.59679 58.6514 2.68211 60.0644 3.11046C61.4775 3.5388 62.7681 4.29783 63.8292 5.32461C64.8903 6.35138 65.6913 7.61632 66.1659 9.01453C66.6404 10.4127 66.7748 11.9039 66.5579 13.3645C66.3411 14.825 65.7791 16.2128 64.9187 17.4127C64.0583 18.6127 62.9243 19.5903 61.6106 20.2644C60.2969 20.9385 58.8415 21.2898 57.3649 21.289Z" fill="#262626"/>
</svg>
