<svg width="93" height="32" viewBox="0 0 93 32" fill="none" xmlns="http://www.w3.org/2000/svg">
<path d="M76.9256 1.73891e-05C73.1029 1.73891e-05 69.5961 1.34106 66.8447 3.57612C63.9969 1.25788 60.4358 -0.0054059 56.7638 1.73891e-05C52.941 1.73891e-05 49.4343 1.34106 46.6828 3.57612C43.8351 1.25788 40.274 -0.0054059 36.6019 1.73891e-05C32.7792 1.73891e-05 29.2725 1.34106 26.521 3.57612C24.1734 1.67103 21.3341 0.470079 18.332 0.112389C15.3298 -0.245301 12.2878 0.254914 9.55833 1.55508C6.82882 2.85525 4.52356 4.90216 2.90959 7.45867C1.29563 10.0152 0.439026 12.9767 0.439026 16C0.439026 19.0233 1.29563 21.9848 2.90959 24.5413C4.52356 27.0978 6.82882 29.1448 9.55833 30.4449C12.2878 31.7451 15.3298 32.2453 18.332 31.8876C21.3341 31.5299 24.1734 30.329 26.521 28.4239C29.2725 30.659 32.7792 32 36.6019 32C40.4247 32 43.9314 30.659 46.6828 28.4239C49.4343 30.659 52.941 32 56.7638 32C60.5865 32 64.0932 30.659 66.8447 28.4239C68.8334 30.0377 71.1804 31.1506 73.6885 31.6689C76.1966 32.1872 78.7925 32.0959 81.258 31.4026C83.7235 30.7093 85.9865 29.4342 87.8569 27.6846C89.7272 25.935 91.1503 23.762 92.0063 21.3482C92.8624 18.9344 93.1266 16.3504 92.7765 13.8133C92.4265 11.2762 91.4725 8.86023 89.9949 6.76841C88.5172 4.67659 86.5589 2.97007 84.2847 1.79227C82.0104 0.614483 79.4867 -0.000156139 76.9256 1.73891e-05ZM66.8447 23.1908C65.343 21.094 64.5371 18.579 64.5403 16C64.5403 13.3179 65.3957 10.8362 66.8447 8.80926C68.2936 10.8362 69.1491 13.3179 69.1491 16C69.1491 18.6821 68.2936 21.1638 66.8447 23.1908ZM46.6828 23.1908C45.1812 21.094 44.3752 18.579 44.3784 16C44.3784 13.3179 45.2339 10.8362 46.6828 8.80926C48.1318 10.8362 48.9873 13.3179 48.9873 16C48.9873 18.6821 48.1318 21.1638 46.6828 23.1908ZM26.521 23.1908C25.0194 21.094 24.2134 18.579 24.2166 16C24.2166 13.3179 25.0721 10.8362 26.521 8.80926C27.97 10.8362 28.8254 13.3179 28.8254 16C28.8254 18.6821 27.97 21.1638 26.521 23.1908ZM4.05475 16C4.05566 13.689 4.70315 11.4243 5.92401 9.46205C7.14486 7.49981 8.89038 5.91829 10.9632 4.89633C13.036 3.87436 15.3533 3.45273 17.6533 3.6791C19.9532 3.90547 22.1439 4.77081 23.9777 6.17728C21.7867 8.98245 20.5982 12.4406 20.6019 16C20.6019 19.7033 21.8659 23.1137 23.9777 25.8227C22.1439 27.2292 19.9532 28.0945 17.6533 28.3209C15.3533 28.5473 13.036 28.1256 10.9632 27.1037C8.89038 26.0817 7.14486 24.5002 5.92401 22.538C4.70315 20.5757 4.05566 18.311 4.05475 16ZM29.0644 25.8227C31.2554 23.0176 32.4438 19.5594 32.4401 16C32.4401 12.2967 31.1761 8.88633 29.0644 6.17728C31.2249 4.51398 33.8753 3.61288 36.6019 3.61466C39.4382 3.61466 42.0509 4.57034 44.1395 6.17728C41.9474 8.98188 40.7589 12.4404 40.7638 16C40.7638 19.7033 42.0277 23.1137 44.1395 25.8227C41.979 27.486 39.3285 28.3871 36.6019 28.3853C33.875 28.3892 31.2239 27.4878 29.0644 25.8227ZM49.2262 25.8227C51.4183 23.0181 52.6068 19.5596 52.6019 16C52.6019 12.2967 51.3379 8.88633 49.2262 6.17342C51.3148 4.57034 53.9275 3.6108 56.7638 3.6108C59.6 3.6108 62.2127 4.56649 64.3013 6.17342C62.1093 8.97802 60.9207 12.4365 60.9256 15.9961C60.9256 19.6994 62.1896 23.1098 64.3013 25.8189C62.1408 27.4822 59.4904 28.3833 56.7638 28.3815C54.037 28.3882 51.3854 27.488 49.2262 25.8227ZM76.9256 28.3853C74.1987 28.3892 71.5476 27.4878 69.388 25.8227C71.5785 23.0173 72.7669 19.5593 72.7637 16C72.7637 12.2967 71.4998 8.88633 69.388 6.17728C70.9494 4.97812 72.7742 4.16846 74.711 3.81542C76.6478 3.46238 78.6409 3.57615 80.5249 4.14728C82.409 4.7184 84.1298 5.73044 85.5446 7.09948C86.9594 8.46851 88.0274 10.1551 88.6602 12.0194C89.2929 13.8836 89.4721 15.8719 89.183 17.8193C88.8938 19.7667 88.1445 21.617 86.9973 23.217C85.8501 24.8169 84.3381 26.1204 82.5865 27.0192C80.8349 27.918 78.8943 28.3864 76.9256 28.3853Z" fill="#262626"/>
</svg>
