<svg width="161" height="24" viewBox="0 0 161 24" fill="none" xmlns="http://www.w3.org/2000/svg">
<g clip-path="url(#clip0_210_6581)">
<path fill-rule="evenodd" clip-rule="evenodd" d="M122.421 11.0379C121.971 11.4595 121.635 13.0678 121.681 13.7659C121.693 14.0954 122.202 14.4511 122.976 14.4647C129.535 14.4647 136.105 14.2599 142.256 13.8508C142.277 13.8497 142.277 13.8146 142.256 13.8134C136.768 13.4543 130.922 13.2524 125.026 13.2067C124.474 13.2025 124.108 12.553 124.332 11.9772C124.48 11.5972 124.611 11.2279 124.695 10.9115C124.75 10.7043 124.619 10.4935 124.429 10.4888C123.706 10.4704 122.827 10.6099 122.421 11.0379Z" fill="#DC1708"/>
<path fill-rule="evenodd" clip-rule="evenodd" d="M35.627 15.9181C38.6251 15.55 39.5732 17.9723 38.6411 19.9932C38.6192 19.9873 38.5883 19.9849 38.545 19.9849C17.6761 20.1725 27.3604 20.0472 6.49152 20.4978C27.3604 20.9484 16.9257 20.7858 37.7945 20.9734C37.8681 20.9734 37.9673 20.9431 38.0712 20.895C38.07 20.8962 38.0694 20.8974 38.0682 20.8986C38.0724 20.8962 38.0759 20.8932 38.0801 20.8909C38.238 20.816 38.406 20.6997 38.5165 20.5774C41.1133 18.4359 38.7842 14.5389 35.6264 15.9187L35.627 15.9181Z" fill="#DC1708"/>
<path fill-rule="evenodd" clip-rule="evenodd" d="M0.343262 23.249C51.3598 22.2355 109.356 22.2355 160.373 23.249C109.643 24.2499 51.0737 24.2499 0.343262 23.249Z" fill="url(#paint0_linear_210_6581)"/>
<path fill-rule="evenodd" clip-rule="evenodd" d="M121.074 18.731L139.326 18.3012L123.613 17.6968C123.216 17.6831 122.978 17.2307 123.174 16.8668C123.176 16.8633 123.178 16.8597 123.18 16.8561C123.272 16.6851 123.445 16.5807 123.632 16.5783L141.002 16.3782L122.22 15.4782C121.234 15.4782 120.71 14.191 120.675 13.8408C120.591 12.7644 121.056 10.8753 121.854 10.1747C121.889 10.1498 121.913 10.1248 121.949 10.0999C122.521 9.6867 123.212 9.63683 123.891 9.56203C124.022 9.54956 125.153 9.33702 125.832 9.19928C126.69 7.09702 127.5 6.05865 126.975 5.77071C126.321 5.40796 124.545 7.66043 122.806 7.6349C120.984 7.57257 117.601 6.82155 110.264 4.44381C95.9104 -0.211331 89.1566 0.00180507 84.8209 0.00180507C80.4851 0.00180507 68.3477 7.77264 68.4189 7.79758C70.4321 6.68381 78.7462 1.96633 83.9873 1.96633C89.1447 1.9788 99.222 4.0686 101.616 4.55661C104.356 5.10696 102.962 6.94681 101.581 7.77264C98.2335 10.2626 77.8058 10.2127 75.2684 10.2127C70.8851 10.2127 68.6695 9.59943 67.6091 9.07401C66.7156 8.68633 65.6915 8.42333 64.7386 8.36099C51.5646 8.22325 40.8918 10.2002 34.4716 16.8199C40.082 13.0286 49.4202 9.03661 63.0591 10.6509C65.9058 10.9887 65.894 11.7017 67.5141 11.8774C70.4203 12.2028 96.9114 13.2916 103.975 10.2382C111.039 7.18489 105.333 5.00782 105.333 5.00782C105.333 5.00782 105.738 5.00782 109.383 6.09665C113.016 7.18548 113.028 9.90043 112.909 10.351C112.79 10.8017 112.766 12.2028 107.882 12.3156C102.999 12.4159 99.3058 16.1069 99.0914 17.5585C100.461 15.2312 103.868 12.6409 109.586 13.6294C115.327 14.6054 117.387 19.8234 118.388 20.7994C118.519 20.9995 118.984 20.9746 119.115 20.9746C139.984 20.787 129.549 20.9496 150.418 20.499C130.339 20.0686 138.893 20.0074 120.974 20.0074C119.932 20.0074 120.111 18.7322 121.075 18.7322L121.074 18.731Z" fill="url(#paint1_linear_210_6581)"/>
</g>
<defs>
<linearGradient id="paint0_linear_210_6581" x1="0.343262" y1="23.2448" x2="160.373" y2="23.2448" gradientUnits="userSpaceOnUse">
<stop stop-color="#E6E6E6"/>
<stop offset="1" stop-color="#100E15"/>
</linearGradient>
<linearGradient id="paint1_linear_210_6581" x1="34.4716" y1="10.487" x2="150.417" y2="10.487" gradientUnits="userSpaceOnUse">
<stop stop-color="#E6E6E6"/>
<stop offset="1" stop-color="#100E15"/>
</linearGradient>
<clipPath id="clip0_210_6581">
<rect width="160.03" height="24" fill="white" transform="translate(0.343262)"/>
</clipPath>
</defs>
</svg>
