<svg width="267" height="40" viewBox="0 0 267 40" fill="none" xmlns="http://www.w3.org/2000/svg">
<g clip-path="url(#clip0_210_6579)">
<path fill-rule="evenodd" clip-rule="evenodd" d="M203.463 18.3966C202.712 19.0991 202.153 21.7796 202.23 22.9432C202.249 23.4924 203.097 24.0851 204.388 24.1079C215.32 24.1079 226.27 23.7665 236.521 23.0847C236.556 23.0828 236.556 23.0244 236.521 23.0224C227.374 22.4238 217.632 22.0873 207.805 22.0111C206.884 22.0042 206.274 20.9217 206.648 19.9619C206.895 19.3286 207.112 18.7132 207.253 18.1858C207.345 17.8405 207.126 17.4892 206.81 17.4813C205.604 17.4506 204.139 17.6831 203.463 18.3966Z" fill="#DC1708"/>
<path fill-rule="evenodd" clip-rule="evenodd" d="M58.8062 26.5301C63.8031 25.9167 65.3833 29.9538 63.8298 33.322C63.7932 33.3121 63.7418 33.3081 63.6695 33.3081C28.8881 33.6208 45.0286 33.412 10.2471 34.163C45.0286 34.9141 27.6374 34.6429 62.4188 34.9556C62.5415 34.9556 62.7067 34.9052 62.8799 34.825C62.8779 34.827 62.8769 34.829 62.875 34.8309C62.8819 34.827 62.8878 34.822 62.8948 34.8181C63.158 34.6934 63.438 34.4995 63.622 34.2956C67.95 30.7266 64.0683 24.2316 58.8052 26.5311L58.8062 26.5301Z" fill="#DC1708"/>
<path fill-rule="evenodd" clip-rule="evenodd" d="M0 38.7483C85.0276 37.0592 181.689 37.0592 266.716 38.7483C182.165 40.4166 84.5507 40.4166 0 38.7483Z" fill="url(#paint0_linear_210_6579)"/>
<path fill-rule="evenodd" clip-rule="evenodd" d="M201.218 31.2183L231.638 30.5019L205.45 29.4946C204.787 29.4719 204.391 28.7179 204.718 28.1113C204.721 28.1054 204.725 28.0995 204.728 28.0935C204.881 27.8086 205.169 27.6344 205.481 27.6304L234.431 27.297L203.129 25.7969C201.484 25.7969 200.612 23.6517 200.552 23.0679C200.414 21.274 201.187 18.1254 202.517 16.9578C202.577 16.9163 202.616 16.8747 202.677 16.8332C203.629 16.1445 204.781 16.0614 205.912 15.9367C206.131 15.9159 208.017 15.5617 209.148 15.3321C210.578 11.8283 211.927 10.0977 211.054 9.61783C209.962 9.01325 207.004 12.7674 204.105 12.7248C201.068 12.6209 195.43 11.3692 183.201 7.40633C159.279 -0.352238 148.022 0.0029881 140.796 0.0029881C133.57 0.0029881 113.341 12.9544 113.46 12.9959C116.815 11.1397 130.672 3.2772 139.407 3.2772C148.003 3.29798 164.798 6.78097 168.789 7.59433C173.355 8.51158 171.032 11.578 168.729 12.9544C163.151 17.1043 129.104 17.0212 124.875 17.0212C117.57 17.0212 113.877 15.999 112.11 15.1233C110.621 14.4772 108.914 14.0389 107.326 13.935C85.369 13.7054 67.581 17.0004 56.8807 28.0332C66.2313 21.7143 81.795 15.061 104.526 17.7514C109.271 18.3144 109.251 19.5028 111.952 19.7957C116.795 20.3379 160.947 22.1526 172.72 17.0637C184.493 11.9748 174.983 8.34634 174.983 8.34634C174.983 8.34634 175.658 8.34634 181.733 10.1611C187.788 11.9758 187.808 16.5007 187.61 17.2517C187.411 18.0027 187.371 20.3379 179.232 20.5259C171.092 20.6932 164.938 26.8448 164.58 29.2641C166.863 25.3853 172.541 21.0682 182.071 22.7157C191.639 24.3424 195.073 33.039 196.742 34.6657C196.96 34.9992 197.734 34.9576 197.953 34.9576C232.734 34.6449 215.343 34.916 250.124 34.165C216.659 33.4476 230.916 33.3457 201.051 33.3457C199.315 33.3457 199.612 31.2203 201.219 31.2203L201.218 31.2183Z" fill="url(#paint1_linear_210_6579)"/>
</g>
<defs>
<linearGradient id="paint0_linear_210_6579" x1="0" y1="38.7414" x2="266.716" y2="38.7414" gradientUnits="userSpaceOnUse">
<stop stop-color="#E6E6E6"/>
<stop offset="1" stop-color="#100E15"/>
</linearGradient>
<linearGradient id="paint1_linear_210_6579" x1="56.8807" y1="17.4783" x2="250.122" y2="17.4783" gradientUnits="userSpaceOnUse">
<stop stop-color="#E6E6E6"/>
<stop offset="1" stop-color="#100E15"/>
</linearGradient>
<clipPath id="clip0_210_6579">
<rect width="266.716" height="40" fill="white"/>
</clipPath>
</defs>
</svg>
