<svg width="16" height="16" viewBox="0 0 16 16" fill="none" xmlns="http://www.w3.org/2000/svg">
<path d="M8 3.57467L9.65 1.55733C9.65 1.55733 12.48 1.61733 15.2973 2.92667C14.576 4.01733 13.1433 4.552 13.1433 4.552C13.046 3.59267 12.374 3.35867 10.2407 3.35867L8 16L5.746 3.356C3.626 3.356 2.954 3.592 2.856 4.55067C2.856 4.55067 1.42533 4.02067 0.703333 2.93067C3.52 1.62067 6.35 1.56 6.35 1.56L8 3.57467L7.99733 3.576H8V3.57467ZM8 0.975333C10.2767 0.955333 12.884 1.32733 15.552 2.49533C15.9087 1.85 16 1.56533 16 1.56533C13.0833 0.408 10.352 0.01 8 0C5.648 0.01 2.91667 0.406667 0 1.566C0 1.566 0.13 1.916 0.448 2.49667C3.116 1.326 5.72333 0.956667 8 0.973333V0.975333Z" fill="#262626"/>
</svg>
