<svg width="32" height="32" viewBox="0 0 32 32" fill="none" xmlns="http://www.w3.org/2000/svg">
<path d="M16 7.14933L19.3 3.11467C19.3 3.11467 24.96 3.23467 30.5947 5.85333C29.152 8.03467 26.2867 9.104 26.2867 9.104C26.092 7.18533 24.748 6.71733 20.4813 6.71733L16 32L11.492 6.712C7.252 6.712 5.908 7.184 5.712 9.10133C5.712 9.10133 2.85067 8.04133 1.40667 5.86133C7.04 3.24133 12.7 3.12 12.7 3.12L16 7.14933L15.9947 7.152H16V7.14933ZM16 1.95067C20.5533 1.91067 25.768 2.65467 31.104 4.99067C31.8173 3.7 32 3.13067 32 3.13067C26.1667 0.816 20.704 0.02 16 0C11.296 0.02 5.83333 0.813333 0 3.132C0 3.132 0.26 3.832 0.896 4.99333C6.232 2.652 11.4467 1.91333 16 1.94667V1.95067Z" fill="#262626"/>
</svg>
