<svg width="24" height="24" viewBox="0 0 24 24" fill="none" xmlns="http://www.w3.org/2000/svg">
<path d="M20.59 14.84L21.75 16.25L17 21L14.25 18L15.41 16.84L17 18.43L20.59 14.84ZM19.07 4.92999L17.66 6.33999C18.4047 7.08201 18.9949 7.96427 19.3965 8.93577C19.7982 9.90727 20.0033 10.9487 20 12V12.34C20.68 12.59 21.33 12.96 21.88 13.43C21.95 12.96 22 12.5 22 12C22 9.23999 20.88 6.73999 19.07 4.92999ZM15.96 12.36C16.6 12.13 17.28 12 18 12C18 10.35 17.33 8.84999 16.24 7.75999L14.83 9.16999C15.2018 9.54142 15.4965 9.98262 15.6973 10.4683C15.8981 10.9539 16.001 11.4745 16 12C16 12.12 15.97 12.24 15.96 12.36ZM12 9.99999C10.9 9.99999 10 10.9 10 12C10 13.1 10.9 14 12 14C13.1 14 14 13.1 14 12C14 10.9 13.1 9.99999 12 9.99999ZM6.34 6.33999L4.93 4.92999C3.12 6.73999 2 9.23999 2 12C2 14.76 3.12 17.26 4.93 19.07L6.34 17.66C5.59456 16.9185 5.00384 16.0364 4.60214 15.0648C4.20044 14.0931 3.99577 13.0514 4 12C4 9.78999 4.89 7.77999 6.34 6.33999ZM7.76 7.75999C6.67 8.84999 6 10.35 6 12C6 13.65 6.67 15.15 7.76 16.24L9.17 14.83C8.45 14.11 8 13.11 8 12C8 10.89 8.45 9.88999 9.17 9.16999L7.76 7.75999Z" fill="#262626"/>
</svg>
