<svg width="24" height="24" viewBox="0 0 24 24" fill="none" xmlns="http://www.w3.org/2000/svg">
<path d="M4.93001 4.92999C3.99998 5.85734 3.26236 6.95933 2.75954 8.17263C2.25672 9.38593 1.99859 10.6866 2.00001 12C2.00001 14.76 3.12001 17.26 4.93001 19.07L6.34001 17.66C5.59457 16.9185 5.00385 16.0364 4.60215 15.0648C4.20045 14.0931 3.99577 13.0514 4.00001 12C4.00001 9.78999 4.89001 7.77999 6.34001 6.33999L4.93001 4.92999ZM19.07 4.92999L17.66 6.33999C18.4047 7.08201 18.9949 7.96427 19.3965 8.93577C19.7982 9.90727 20.0033 10.9487 20 12C20 14.22 19.11 16.22 17.66 17.66L19.07 19.07C20 18.1426 20.7376 17.0407 21.2405 15.8274C21.7433 14.6141 22.0014 13.3134 22 12C22 9.23999 20.88 6.73999 19.07 4.92999ZM7.76001 7.75999C7.20181 8.31596 6.75896 8.97674 6.45693 9.70437C6.15489 10.432 5.99961 11.2122 6.00001 12C6.00001 13.65 6.67001 15.15 7.76001 16.24L9.17001 14.83C8.79822 14.4586 8.50348 14.0174 8.3027 13.5317C8.10191 13.0461 7.99905 12.5255 8.00001 12C8.00001 10.89 8.45001 9.88999 9.17001 9.16999L7.76001 7.75999ZM16.24 7.75999L14.83 9.16999C15.2018 9.54142 15.4965 9.98262 15.6973 10.4683C15.8981 10.9539 16.001 11.4745 16 12C16 13.11 15.55 14.11 14.83 14.83L16.24 16.24C16.7982 15.684 17.241 15.0232 17.5431 14.2956C17.8451 13.568 18.0004 12.7878 18 12C18 10.35 17.33 8.84999 16.24 7.75999ZM12 9.99999C11.4696 9.99999 10.9609 10.2107 10.5858 10.5858C10.2107 10.9609 10 11.4696 10 12C10 12.5304 10.2107 13.0391 10.5858 13.4142C10.9609 13.7893 11.4696 14 12 14C12.5304 14 13.0391 13.7893 13.4142 13.4142C13.7893 13.0391 14 12.5304 14 12C14 11.4696 13.7893 10.9609 13.4142 10.5858C13.0391 10.2107 12.5304 9.99999 12 9.99999Z" fill="#262626"/>
</svg>
