<svg width="24" height="24" viewBox="0 0 24 24" fill="none" xmlns="http://www.w3.org/2000/svg">
<path d="M22 15.04C22 17.23 20.24 19 18.07 19H5.93C3.76 19 2 17.23 2 15.04C2 13.07 3.43 11.44 5.31 11.14C5.28 11 5.27 10.86 5.27 10.71C5.27 9.33 6.38 8.2 7.76 8.2C8.37 8.2 8.94 8.43 9.37 8.8C10.14 7.05 11.13 5.44 13.91 5.44C17.28 5.44 18.87 8.06 18.87 10.83C18.87 10.94 18.87 11.06 18.86 11.17C19.7483 11.3561 20.5455 11.8425 21.1173 12.5473C21.6892 13.2521 22.0009 14.1324 22 15.04Z" fill="#262626"/>
</svg>
