<svg width="24" height="24" viewBox="0 0 24 24" fill="none" xmlns="http://www.w3.org/2000/svg">
<path d="M20.717 13.06C20.9979 12.7788 21.1557 12.3975 21.1557 12C21.1557 11.6025 20.9979 11.2213 20.717 10.94L15.061 5.281C14.7796 4.99961 14.3979 4.84152 14 4.84152C13.602 4.84152 13.2204 4.99961 12.939 5.281C12.6576 5.5624 12.4995 5.94405 12.4995 6.342C12.4995 6.73995 12.6576 7.12161 12.939 7.403L16.035 10.5L4.49999 10.5C4.10217 10.5 3.72064 10.658 3.43933 10.9393C3.15803 11.2206 2.99999 11.6022 2.99999 12C2.99999 12.3978 3.15803 12.7794 3.43933 13.0607C3.72064 13.342 4.10217 13.5 4.49999 13.5L16.035 13.5L12.939 16.596C12.7997 16.7353 12.6891 16.9007 12.6137 17.0828C12.5383 17.2648 12.4995 17.46 12.4995 17.657C12.4995 17.854 12.5383 18.0492 12.6137 18.2312C12.6891 18.4133 12.7997 18.5787 12.939 18.718C13.0783 18.8573 13.2437 18.9679 13.4258 19.0433C13.6078 19.1187 13.8029 19.1575 14 19.1575C14.197 19.1575 14.3922 19.1187 14.5742 19.0433C14.7562 18.9679 14.9217 18.8573 15.061 18.718L20.717 13.06Z" fill="#262626"/>
</svg>
