<svg width="24" height="24" viewBox="0 0 24 24" fill="none" xmlns="http://www.w3.org/2000/svg">
<path d="M12.66 13.67C12.32 14 11.93 14.29 11.5 14.5V21L9.50001 23L7.50001 21L9.50001 19.29L8.00001 18L9.50001 16.71L7.50001 15V14.5C6.7481 14.1374 6.11425 13.5693 5.67182 12.8614C5.22939 12.1535 4.99646 11.3348 5.00001 10.5C5.00001 8 7.00001 6 9.50001 6H9.61001C9.59001 6.07 9.54001 6.12 9.50001 6.18C9.23001 6.79 9.08001 7.43 9.03001 8.08C8.69222 8.1919 8.40529 8.4204 8.22062 8.72458C8.03594 9.02875 7.96558 9.38873 8.02213 9.74005C8.07868 10.0914 8.25844 10.4111 8.52924 10.642C8.80003 10.8728 9.14416 10.9997 9.50001 11H9.60001C10.24 12.25 11.34 13.2 12.66 13.67ZM16 6C16 5.37 15.9 4.75 15.72 4.18C17.06 4.56 18.21 5.55 18.73 6.96C19.33 8.62 18.89 10.39 17.75 11.59L20 17.68L18.78 20.25L16.22 19.05L17.5 16.76L15.66 16.06L16.63 14.34L14.16 13.41L14 12.95C13.1687 12.8613 12.3788 12.5418 11.7196 12.0275C11.0604 11.5132 10.5583 10.8248 10.27 10.04C9.86389 8.91802 9.91896 7.68082 10.4231 6.59935C10.9273 5.51788 11.8395 4.68028 12.96 4.27C13.14 4.21 13.33 4.17 13.5 4.13C13.1675 3.48857 12.6653 2.95074 12.0481 2.57515C11.4309 2.19955 10.7225 2.0006 10 2C7.79001 2 6.00001 3.79 6.00001 6C6.00001 6.09 6.00001 6.17 6.03001 6.26C5.70001 6.53 5.40001 6.82 5.15001 7.15C5.06001 6.78 5.00001 6.4 5.00001 6C5.00001 3.24 7.24001 1 10 1C12.76 1 15 3.24 15 6C15 7.16 14.6 8.21 13.94 9.06C16.08 8.88 16 6 16 6ZM12.81 8.1C12.87 8.27 12.96 8.41 13.06 8.54C13.62 7.88 13.97 7.04 14 6.11C13.89 6.13 13.8 6.15 13.7 6.18C12.92 6.47 12.5 7.33 12.81 8.1Z" fill="#262626"/>
</svg>
