<svg width="33" height="32" viewBox="0 0 33 32" fill="none" xmlns="http://www.w3.org/2000/svg">
<path d="M16.8523 0C7.99896 0 0.852295 7.14667 0.852295 16C0.852295 24.8533 7.99896 32 16.8523 32C25.7056 32 32.8523 24.8533 32.8523 16C32.8523 7.14667 25.7056 0 16.8523 0ZM16.8523 1.88C18.4523 1.88 19.999 2.17333 21.4256 2.66667L17.0256 12.1733C16.9723 12.2267 16.9723 12.3467 16.8523 12.3467C16.7323 12.3467 16.7323 12.2267 16.679 12.1733L12.279 2.66667C13.7056 2.17333 15.2523 1.89333 16.8523 1.89333M10.0523 3.65333L15.1456 14.6267C15.2523 14.8533 15.3723 14.92 15.519 14.92H18.1856C18.3456 14.92 18.4523 14.8533 18.5723 14.6267L23.599 3.65333C25.7056 4.85333 27.519 6.57333 28.799 8.62667L21.6523 22.4533C21.599 22.5733 21.519 22.6267 21.479 22.6267C21.3723 22.6267 21.3723 22.52 21.3056 22.4533L18.5723 16.4C18.4523 16.1733 18.3456 16.12 18.1856 16.12H15.519C15.3723 16.12 15.2523 16.1733 15.1323 16.4L12.399 22.4533C12.3323 22.52 12.3456 22.6267 12.2256 22.6267C12.1056 22.6267 12.1056 22.52 12.0523 22.4533L4.85229 8.62667C6.10563 6.57333 7.94563 4.85333 10.0523 3.65333ZM3.59896 11.3733L11.8256 27.3733C11.9323 27.6 12.0523 27.7733 12.3456 27.7733C12.6256 27.7733 12.7323 27.6 12.8523 27.3733L16.679 18.8533C16.7323 18.7467 16.799 18.6667 16.8523 18.6667C16.9723 18.6667 16.9723 18.8 17.0256 18.8533L20.9056 27.3733C21.0256 27.6 21.1323 27.7733 21.4256 27.7733C21.7056 27.7733 21.8256 27.6 21.9323 27.3733L30.1856 11.3733C30.679 12.8 30.9723 14.3467 30.9723 16C30.9056 23.72 24.5723 30.12 16.8523 30.12C9.1323 30.12 2.79896 23.72 2.79896 16C2.79896 14.4 3.07896 12.8667 3.59896 11.3733Z" fill="#262626"/>
</svg>
