<svg width="17" height="16" viewBox="0 0 17 16" fill="none" xmlns="http://www.w3.org/2000/svg">
<path d="M8.85229 0C4.42563 0 0.852295 3.57333 0.852295 8C0.852295 12.4267 4.42563 16 8.85229 16C13.279 16 16.8523 12.4267 16.8523 8C16.8523 3.57333 13.279 0 8.85229 0ZM8.85229 0.94C9.6523 0.94 10.4256 1.08667 11.139 1.33333L8.93896 6.08667C8.9123 6.11333 8.9123 6.17333 8.85229 6.17333C8.79229 6.17333 8.79229 6.11333 8.76563 6.08667L6.56563 1.33333C7.27896 1.08667 8.0523 0.946667 8.85229 0.946667M5.4523 1.82667L7.99896 7.31333C8.0523 7.42667 8.1123 7.46 8.18563 7.46H9.51896C9.59896 7.46 9.6523 7.42667 9.7123 7.31333L12.2256 1.82667C13.279 2.42667 14.1856 3.28667 14.8256 4.31333L11.2523 11.2267C11.2256 11.2867 11.1856 11.3133 11.1656 11.3133C11.1123 11.3133 11.1123 11.26 11.079 11.2267L9.7123 8.2C9.6523 8.08667 9.59896 8.06 9.51896 8.06H8.18563C8.1123 8.06 8.0523 8.08667 7.9923 8.2L6.62563 11.2267C6.5923 11.26 6.59896 11.3133 6.53896 11.3133C6.47896 11.3133 6.47896 11.26 6.45229 11.2267L2.85229 4.31333C3.47896 3.28667 4.39896 2.42667 5.4523 1.82667ZM2.22563 5.68667L6.33896 13.6867C6.39229 13.8 6.45229 13.8867 6.59896 13.8867C6.73896 13.8867 6.79229 13.8 6.85229 13.6867L8.76563 9.42667C8.79229 9.37333 8.82563 9.33333 8.85229 9.33333C8.9123 9.33333 8.9123 9.4 8.93896 9.42667L10.879 13.6867C10.939 13.8 10.9923 13.8867 11.139 13.8867C11.279 13.8867 11.339 13.8 11.3923 13.6867L15.519 5.68667C15.7656 6.4 15.9123 7.17333 15.9123 8C15.879 11.86 12.7123 15.06 8.85229 15.06C4.9923 15.06 1.82563 11.86 1.82563 8C1.82563 7.2 1.96563 6.43333 2.22563 5.68667Z" fill="#262626"/>
</svg>
