<svg width="25" height="24" viewBox="0 0 25 24" fill="none" xmlns="http://www.w3.org/2000/svg">
<path d="M12.8523 0C6.2123 0 0.852295 5.36 0.852295 12C0.852295 18.64 6.2123 24 12.8523 24C19.4923 24 24.8523 18.64 24.8523 12C24.8523 5.36 19.4923 0 12.8523 0ZM12.8523 1.41C14.0523 1.41 15.2123 1.63 16.2823 2L12.9823 9.13C12.9423 9.17 12.9423 9.26 12.8523 9.26C12.7623 9.26 12.7623 9.17 12.7223 9.13L9.42229 2C10.4923 1.63 11.6523 1.42 12.8523 1.42M7.7523 2.74L11.5723 10.97C11.6523 11.14 11.7423 11.19 11.8523 11.19H13.8523C13.9723 11.19 14.0523 11.14 14.1423 10.97L17.9123 2.74C19.4923 3.64 20.8523 4.93 21.8123 6.47L16.4523 16.84C16.4123 16.93 16.3523 16.97 16.3223 16.97C16.2423 16.97 16.2423 16.89 16.1923 16.84L14.1423 12.3C14.0523 12.13 13.9723 12.09 13.8523 12.09H11.8523C11.7423 12.09 11.6523 12.13 11.5623 12.3L9.51229 16.84C9.46229 16.89 9.47229 16.97 9.38229 16.97C9.29229 16.97 9.29229 16.89 9.25229 16.84L3.85229 6.47C4.79229 4.93 6.1723 3.64 7.7523 2.74ZM2.91229 8.53L9.08229 20.53C9.16229 20.7 9.25229 20.83 9.47229 20.83C9.68229 20.83 9.76229 20.7 9.85229 20.53L12.7223 14.14C12.7623 14.06 12.8123 14 12.8523 14C12.9423 14 12.9423 14.1 12.9823 14.14L15.8923 20.53C15.9823 20.7 16.0623 20.83 16.2823 20.83C16.4923 20.83 16.5823 20.7 16.6623 20.53L22.8523 8.53C23.2223 9.6 23.4423 10.76 23.4423 12C23.3923 17.79 18.6423 22.59 12.8523 22.59C7.06229 22.59 2.31229 17.79 2.31229 12C2.31229 10.8 2.52229 9.65 2.91229 8.53Z" fill="#262626"/>
</svg>
